<?xml version="1.0" encoding="UTF-8"?>
<svg version="1.1" xmlns="http://www.w3.org/2000/svg" width="294" height="211">
<path d="M0 0 C1.39854056 -0.00643972 2.79707982 -0.01316892 4.19561768 -0.02017212 C7.12067787 -0.03210749 10.04562032 -0.03585694 12.97070312 -0.03466797 C16.69034311 -0.03446525 20.40921503 -0.0617341 24.12867355 -0.09621239 C27.01661538 -0.11862429 29.90437672 -0.12250115 32.79239655 -0.12144852 C34.16212859 -0.12378433 35.53186719 -0.13249186 36.90151215 -0.14811325 C48.48358285 -0.26782637 58.52132816 1.15833155 67.109375 9.5 C71.7715377 14.87062861 72.31037088 20.53848329 72.11328125 27.40234375 C71.15790385 34.2355669 66.85452311 38.60334823 61.83984375 43.01171875 C55.81893762 46.74313955 50.14612701 47.77624607 43.22265625 47.77734375 C42.44677658 47.79055161 41.67089691 47.80375946 40.87150574 47.81736755 C38.41950768 47.8578805 35.96787963 47.87983236 33.515625 47.8984375 C31.05277096 47.92230657 28.59026096 47.95050368 26.12760925 47.99021912 C24.60292065 48.01438332 23.07805052 48.02939824 21.55317688 48.03382874 C16.63245313 48.10599873 12.95812256 48.78076677 8.890625 51.5859375 C7.04869711 54.30035755 7.17235247 56.15130231 7.703125 59.3359375 C12.61550249 63.18617931 17.35557066 63.47716671 23.37109375 63.51171875 C24.91993527 63.53493031 26.46876342 63.55904818 28.01757812 63.58398438 C30.44873841 63.61897038 32.87941061 63.64837528 35.31079102 63.66186523 C52.15409292 63.77350127 52.15409292 63.77350127 58.703125 68.3359375 C63.54879353 73.43010185 64.07139132 77.74313085 63.97265625 84.546875 C63.49950372 89.44297507 61.83188413 92.57623377 58.03788757 95.71247864 C52.73243808 99.27202328 48.66562535 100.05149231 42.34765625 99.97265625 C41.05066048 99.98822319 41.05066048 99.98822319 39.72746277 100.00410461 C36.98977016 100.03358672 34.25344636 100.03043837 31.515625 100.0234375 C28.76747662 100.03235146 26.01968741 100.04835486 23.27165222 100.0749054 C21.56884274 100.08973995 19.86589283 100.09367161 18.16304016 100.08512878 C12.16615102 100.07950798 12.16615102 100.07950798 6.703125 102.3359375 C4.60461158 106.38157135 4.4323808 109.9074353 4.38427734 114.42114258 C4.36920891 115.46099304 4.36920891 115.46099304 4.35383606 116.52185059 C4.32309137 118.79971533 4.30599355 121.07746301 4.2890625 123.35546875 C4.2703438 124.9401703 4.25076986 126.52486196 4.2303772 128.10954285 C4.179124 132.27035684 4.13946195 136.43120312 4.10223389 140.59216309 C4.06215142 144.84212182 4.01107846 149.09194702 3.9609375 153.34179688 C3.86425891 161.67308575 3.77982847 170.00444089 3.703125 178.3359375 C4.693125 178.3359375 5.683125 178.3359375 6.703125 178.3359375 C6.703125 184.9359375 6.703125 191.5359375 6.703125 198.3359375 C6.043125 198.3359375 5.383125 198.3359375 4.703125 198.3359375 C4.72375 199.1403125 4.744375 199.9446875 4.765625 200.7734375 C4.703125 203.3359375 4.703125 203.3359375 3.703125 204.3359375 C1.70354136 204.37674533 -0.29732754 204.37848106 -2.296875 204.3359375 C-2.420625 203.5315625 -2.544375 202.7271875 -2.671875 201.8984375 C-2.878125 201.0528125 -3.084375 200.2071875 -3.296875 199.3359375 C-3.956875 199.0059375 -4.616875 198.6759375 -5.296875 198.3359375 C-5.296875 191.7359375 -5.296875 185.1359375 -5.296875 178.3359375 C-4.306875 178.3359375 -3.316875 178.3359375 -2.296875 178.3359375 C-2.30353683 177.43915283 -2.31019867 176.54236816 -2.31706238 175.6184082 C-2.37731013 167.14442997 -2.42291872 158.67052425 -2.45231152 150.19638062 C-2.46793093 145.8402997 -2.48910069 141.48439658 -2.52319336 137.12841797 C-2.55592029 132.92034165 -2.573756 128.71243576 -2.58150673 124.50424194 C-2.5870264 122.9031608 -2.59780479 121.30208841 -2.61406517 119.70108032 C-2.76840431 103.86716371 -2.76840431 103.86716371 0.703125 97.3359375 C4.69593284 94.16216717 8.71308689 93.21964661 13.73388672 93.1940918 C14.51504852 93.18705734 15.29621033 93.18002289 16.1010437 93.17277527 C17.35426926 93.16652885 17.35426926 93.16652885 18.6328125 93.16015625 C20.41537642 93.13696027 22.19792855 93.11284302 23.98046875 93.08789062 C26.78051692 93.05278569 29.58012961 93.02342789 32.38037109 93.01000977 C35.09004888 92.99449725 37.79846888 92.95427424 40.5078125 92.91015625 C41.33924774 92.91206467 42.17068298 92.91397308 43.02731323 92.91593933 C48.36477445 92.80416343 51.47147731 91.88944185 55.703125 88.3359375 C57.43944136 84.86330477 57.30502902 81.12400737 56.703125 77.3359375 C54.52153355 74.58024303 52.83135006 72.90005003 49.703125 71.3359375 C47.25688516 71.21557259 44.83421733 71.15034203 42.38671875 71.125 C40.88475529 71.09690115 39.38280233 71.06823654 37.88085938 71.0390625 C35.52010739 70.99804416 33.15954496 70.9611505 30.79858398 70.93457031 C10.62741145 70.68793217 10.62741145 70.68793217 3.703125 64.7734375 C0.62783998 61.02543388 0.23180647 58.48191603 0.30078125 53.72265625 C1.00748699 49.53045034 3.30472412 46.78329336 6.703125 44.3359375 C15.11693715 39.89994248 24.74194623 40.86978678 34.01269531 40.82470703 C45.24166476 40.74576455 54.23316274 40.60423399 62.703125 32.3359375 C65.25917816 28.10794546 65.37393138 24.15735836 64.703125 19.3359375 C62.31824011 14.47444138 59.44569343 11.88962819 54.703125 9.3359375 C47.54013753 7.01289093 40.63528569 7.01344051 33.1484375 7 C31.85171112 6.9933432 30.55498474 6.9866864 29.21896362 6.97982788 C26.48399524 6.96791137 23.74915263 6.96414129 21.01416016 6.96533203 C17.53544531 6.9655351 14.0575485 6.93822183 10.57902718 6.90378761 C7.22715398 6.87600768 3.87542398 6.87736548 0.5234375 6.875 C-0.71227997 6.86062897 -1.94799744 6.84625793 -3.22116089 6.83145142 C-11.12764406 6.87286791 -19.12333771 7.42695705 -25.16964722 13.08999634 C-37.74669177 27.70747314 -35.58107696 51.86413903 -35.421875 69.8359375 C-35.41181501 71.83463088 -35.40269455 73.83332922 -35.39453125 75.83203125 C-35.37278025 80.66679205 -35.3384206 85.50130795 -35.296875 90.3359375 C-37.276875 90.3359375 -39.256875 90.3359375 -41.296875 90.3359375 C-42.14638753 80.12661733 -42.42783688 69.92568221 -42.47412109 59.68362427 C-42.48411967 57.69911482 -42.50365373 55.71466063 -42.5234375 53.73022461 C-42.54050293 36.93890918 -40.8691665 20.3665259 -29.296875 7.3359375 C-20.52799303 -0.01749502 -10.96147592 0.01190641 0 0 Z " fill="#208BB2" transform="translate(62.296875,1.6640625)"/>
<path d="M0 0 C4.97046595 2.87817536 8.36999451 6.98214886 11.0625 12 C11.6875 14.4375 11.6875 14.4375 11.6875 20.4375 C5.7475 20.4375 -0.1925 20.4375 -6.3125 20.4375 C-6.3125 21.0975 -6.3125 21.7575 -6.3125 22.4375 C-0.3725 22.4375 5.5675 22.4375 11.6875 22.4375 C11.76858167 26.47957139 11.82804629 30.52000908 11.875 34.5625 C11.90013672 35.70460937 11.92527344 36.84671875 11.95117188 38.0234375 C12.04228523 48.47110226 12.04228523 48.47110226 8.6875 53.4375 C8.130625 54.30375 7.57375 55.17 7 56.0625 C2.22084538 60.97082097 -2.4777886 62.6872391 -9.3125 62.9375 C-15.55858697 62.70120415 -20.27432932 61.3435763 -24.83984375 56.9765625 C-29.05155538 52.16666574 -30.57006638 48.7092706 -30.5078125 42.359375 C-30.50136719 41.19921875 -30.49492187 40.0390625 -30.48828125 38.84375 C-30.47152344 37.6371875 -30.45476563 36.430625 -30.4375 35.1875 C-30.42847656 33.96546875 -30.41945313 32.7434375 -30.41015625 31.484375 C-30.38659603 28.46866634 -30.35072539 25.45305842 -30.3125 22.4375 C-24.3725 22.4375 -18.4325 22.4375 -12.3125 22.4375 C-12.3125 21.7775 -12.3125 21.1175 -12.3125 20.4375 C-18.2525 20.4375 -24.1925 20.4375 -30.3125 20.4375 C-31.81655599 15.92533203 -30.18023396 12.68168923 -28.3125 8.4375 C-21.90916238 -1.25898268 -10.84004906 -4.78786106 0 0 Z " fill="#5E019F" transform="translate(33.3125,94.5625)"/>
<path d="M0 0 C2.05078125 0.03255208 4.1015625 0.06510417 6.15234375 0.09765625 C6.18145696 3.18096965 6.19918057 6.2642475 6.21484375 9.34765625 C6.22322266 10.22035156 6.23160156 11.09304687 6.24023438 11.9921875 C6.24345703 12.83652344 6.24667969 13.68085938 6.25 14.55078125 C6.25523682 15.32583008 6.26047363 16.10087891 6.26586914 16.89941406 C6.15234375 19.09765625 6.15234375 19.09765625 5.15234375 23.09765625 C9.11234375 22.76765625 13.07234375 22.43765625 17.15234375 22.09765625 C17.24322266 19.84115234 17.24322266 19.84115234 17.3359375 17.5390625 C17.42032418 15.57941636 17.5049731 13.61978149 17.58984375 11.66015625 C17.62916016 10.66693359 17.66847656 9.67371094 17.70898438 8.65039062 C17.75087891 7.70615234 17.79277344 6.76191406 17.8359375 5.7890625 C17.87259521 4.91451416 17.90925293 4.03996582 17.94702148 3.13891602 C18.15234375 1.09765625 18.15234375 1.09765625 19.15234375 0.09765625 C21.82293226 -0.04349536 24.47666613 0.05518518 27.15234375 0.09765625 C27.18145696 3.18096965 27.19918057 6.2642475 27.21484375 9.34765625 C27.22322266 10.22035156 27.23160156 11.09304687 27.24023438 11.9921875 C27.24506836 13.25869141 27.24506836 13.25869141 27.25 14.55078125 C27.25785522 15.71335449 27.25785522 15.71335449 27.26586914 16.89941406 C27.15234375 19.09765625 27.15234375 19.09765625 26.15234375 23.09765625 C30.11234375 23.09765625 34.07234375 23.09765625 38.15234375 23.09765625 C38.64734375 24.58265625 38.64734375 24.58265625 39.15234375 26.09765625 C39.48234375 25.43765625 39.81234375 24.77765625 40.15234375 24.09765625 C43.5294 24.6349152 46.84902975 25.20830248 50.15234375 26.09765625 C48.64060215 21.86477976 45.82008235 20.4664041 42.15234375 18.09765625 C39.64929997 14.34309058 39.69954301 12.55019691 40.15234375 8.09765625 C41.86451412 4.73672922 43.2164833 2.6955671 46.40234375 0.66015625 C50.83732588 -0.24699918 55.06608803 -0.0106671 59.15234375 2.16015625 C60.8409068 5.43174716 60.38711126 8.45875988 60.15234375 12.09765625 C59.15234375 13.09765625 59.15234375 13.09765625 56.08984375 13.16015625 C55.12046875 13.13953125 54.15109375 13.11890625 53.15234375 13.09765625 C52.65734375 10.62265625 52.65734375 10.62265625 52.15234375 8.09765625 C51.49234375 8.09765625 50.83234375 8.09765625 50.15234375 8.09765625 C51.52701533 13.04647394 53.95337768 14.38582399 58.15234375 17.09765625 C60.72728111 20.2323626 60.20628505 23.26529739 59.83203125 27.09765625 C58.85513687 29.97219605 57.55691927 31.2598157 55.15234375 33.09765625 C52.27734375 33.55859375 52.27734375 33.55859375 49.15234375 33.47265625 C48.12109375 33.45976562 47.08984375 33.446875 46.02734375 33.43359375 C43.24578403 33.10857454 41.53054724 32.52686508 39.15234375 31.09765625 C38.49234375 31.75765625 37.83234375 32.41765625 37.15234375 33.09765625 C34.06709436 33.27319044 31.07270173 33.32888422 27.98828125 33.29296875 C26.62746933 33.28872391 26.62746933 33.28872391 25.23916626 33.28439331 C22.33509252 33.27317778 19.43132463 33.24807088 16.52734375 33.22265625 C14.56120236 33.21262822 12.59505615 33.20350206 10.62890625 33.1953125 C5.80326716 33.17323397 0.97785735 33.1386949 -3.84765625 33.09765625 C-3.72969171 28.55848706 -3.60546512 24.01954983 -3.4753418 19.48071289 C-3.4319364 17.93551336 -3.39026554 16.39026411 -3.3503418 14.8449707 C-3.29277426 12.62826529 -3.22904201 10.41181145 -3.1640625 8.1953125 C-3.14735001 7.50051285 -3.13063751 6.8057132 -3.11341858 6.08985901 C-2.9286256 0.15478994 -2.9286256 0.15478994 0 0 Z " fill="#44195D" transform="translate(103.84765625,140.90234375)"/>
<path d="M0 0 C2.43022963 6.48061234 3.83477162 12.8778117 4.99731445 19.67773438 C5.34188462 23.13191677 5.34188462 23.13191677 7 26 C7.02505615 25.38479492 7.0501123 24.76958984 7.07592773 24.13574219 C7.19218487 21.34029844 7.31477642 18.54516702 7.4375 15.75 C7.47681641 14.78191406 7.51613281 13.81382812 7.55664062 12.81640625 C7.59853516 11.88183594 7.64042969 10.94726562 7.68359375 9.984375 C7.72025146 9.12553711 7.75690918 8.26669922 7.79467773 7.38183594 C7.98703514 5.15039857 8.38846244 3.15017476 9 1 C15.26644839 -0.55377101 20.6891475 -1.74092483 27 0 C30.06853254 3.14524586 31.23312705 5.74614327 31.4375 10.0625 C30.98189114 14.16297975 30.71862708 15.94154454 28 19 C23.90627529 21.65092577 20.93340206 23 16 23 C16 25.97 16 28.94 16 32 C9.73 32 3.46 32 -3 32 C-3.33 30.02 -3.66 28.04 -4 26 C-5.98 26.33 -7.96 26.66 -10 27 C-10.33 28.65 -10.66 30.3 -11 32 C-14.3 32 -17.6 32 -21 32 C-19.14518831 23.69699002 -17.077477 15.56911658 -14 7.625 C-13.525625 6.40039062 -13.05125 5.17578125 -12.5625 3.9140625 C-11 1 -11 1 -9.046875 -0.4375 C-5.9030579 -1.30144974 -3.15476234 -0.60668507 0 0 Z M17 8 C17 10.31 17 12.62 17 15 C19.57327433 13.78969026 19.57327433 13.78969026 22 12 C22 10.68 22 9.36 22 8 C20.35 8 18.7 8 17 8 Z M-6 15 C-6.33 15.99 -6.66 16.98 -7 18 C-6.34 18 -5.68 18 -5 18 C-5.33 17.01 -5.66 16.02 -6 15 Z " fill="#441B5D" transform="translate(236,142)"/>
<path d="M0 0 C0.495 1.485 0.495 1.485 1 3 C-0.77442409 5.99816485 -2.53540571 8.53540571 -5 11 C-5 11.33 -5 11.66 -5 12 C-6.778302 12.029729 -6.778302 12.029729 -8.5925293 12.06005859 C-13.00029367 12.13625789 -17.4077341 12.22495323 -21.81518555 12.31738281 C-23.72104486 12.35561339 -25.62697487 12.39047655 -27.53295898 12.421875 C-30.27613553 12.46765422 -33.01882788 12.5256273 -35.76171875 12.5859375 C-37.03543587 12.60326431 -37.03543587 12.60326431 -38.33488464 12.62094116 C-44.44001869 12.71478067 -44.44001869 12.71478067 -50 15 C-52.09748177 19.04635448 -52.27074076 22.57117509 -52.31884766 27.08520508 C-52.32889328 27.77843872 -52.3389389 28.47167236 -52.34928894 29.18591309 C-52.38003363 31.46377783 -52.39713145 33.74152551 -52.4140625 36.01953125 C-52.4327812 37.6042328 -52.45235514 39.18892446 -52.4727478 40.77360535 C-52.524001 44.93441934 -52.56366305 49.09526562 -52.60089111 53.25622559 C-52.64097358 57.50618432 -52.69204654 61.75600952 -52.7421875 66.00585938 C-52.83886609 74.33714825 -52.92329653 82.66850339 -53 91 C-52.01 91 -51.02 91 -50 91 C-50 97.6 -50 104.2 -50 111 C-50.66 111 -51.32 111 -52 111 C-51.979375 111.804375 -51.95875 112.60875 -51.9375 113.4375 C-52 116 -52 116 -53 117 C-54.99958364 117.04080783 -57.00045254 117.04254356 -59 117 C-59.12375 116.195625 -59.2475 115.39125 -59.375 114.5625 C-59.58125 113.716875 -59.7875 112.87125 -60 112 C-60.66 111.67 -61.32 111.34 -62 111 C-62 104.4 -62 97.8 -62 91 C-61.01 91 -60.02 91 -59 91 C-59.00666183 90.10321533 -59.01332367 89.20643066 -59.02018738 88.2824707 C-59.08043513 79.80849247 -59.12604372 71.33458675 -59.15543652 62.86044312 C-59.17105593 58.5043622 -59.19222569 54.14845908 -59.22631836 49.79248047 C-59.25904529 45.58440415 -59.276881 41.37649826 -59.28463173 37.16830444 C-59.2901514 35.5672233 -59.30092979 33.96615091 -59.31719017 32.36514282 C-59.47152931 16.53122621 -59.47152931 16.53122621 -56 10 C-52.00719216 6.82622967 -47.99003811 5.88370911 -42.96923828 5.8581543 C-42.18807648 5.85111984 -41.40691467 5.84408539 -40.6020813 5.83683777 C-39.34885574 5.83059135 -39.34885574 5.83059135 -38.0703125 5.82421875 C-36.28774858 5.80102277 -34.50519645 5.77690552 -32.72265625 5.75195312 C-29.92260808 5.71684819 -27.12299539 5.68749039 -24.32275391 5.67407227 C-21.61307612 5.65855975 -18.90465612 5.61833674 -16.1953125 5.57421875 C-15.36387726 5.57612717 -14.53244202 5.57803558 -13.67581177 5.58000183 C-7.79386532 5.45682345 -4.25823288 4.25823288 0 0 Z " fill="#258EB4" transform="translate(119,89)"/>
<path d="M0 0 C1.39854056 -0.00643972 2.79707982 -0.01316892 4.19561768 -0.02017212 C7.12067787 -0.03210749 10.04562032 -0.03585694 12.97070312 -0.03466797 C16.69034311 -0.03446525 20.40921503 -0.0617341 24.12867355 -0.09621239 C27.01661538 -0.11862429 29.90437672 -0.12250115 32.79239655 -0.12144852 C34.16212859 -0.12378433 35.53186719 -0.13249186 36.90151215 -0.14811325 C48.85823926 -0.27169884 58.17921367 1.41650692 67.2421875 9.5546875 C68.83285668 11.49411303 69.3050908 12.88318624 69.703125 15.3359375 C69.13464844 14.92601562 68.56617188 14.51609375 67.98046875 14.09375 C67.20832031 13.55492187 66.43617188 13.01609375 65.640625 12.4609375 C64.50947266 11.66042969 64.50947266 11.66042969 63.35546875 10.84375 C58.11073158 7.86220575 52.88017267 7.08513151 46.91674805 7.04541016 C45.6081633 7.03265045 44.29957855 7.01989075 42.95133972 7.00674438 C41.53917592 7.00368606 40.12701011 7.00145866 38.71484375 7 C37.24664687 6.99356191 35.77845124 6.98683282 34.31025696 6.97982788 C31.23976674 6.96789054 28.16938872 6.96414336 25.09887695 6.96533203 C21.18858401 6.96553496 17.27901991 6.93824439 13.36889935 6.90378761 C10.33774086 6.8814119 7.3067548 6.87749773 4.27552223 6.87855148 C2.83518782 6.8762111 1.3948475 6.86747693 -0.04540443 6.85188675 C-13.61254068 6.70187592 -13.61254068 6.70187592 -25.16352844 13.08999634 C-37.76100011 27.67182054 -35.58088558 51.88574264 -35.421875 69.8359375 C-35.41181501 71.83463088 -35.40269455 73.83332922 -35.39453125 75.83203125 C-35.37278025 80.66679205 -35.3384206 85.50130795 -35.296875 90.3359375 C-37.276875 90.3359375 -39.256875 90.3359375 -41.296875 90.3359375 C-42.14638753 80.12661733 -42.42783688 69.92568221 -42.47412109 59.68362427 C-42.48411967 57.69911482 -42.50365373 55.71466063 -42.5234375 53.73022461 C-42.54050293 36.93890918 -40.8691665 20.3665259 -29.296875 7.3359375 C-20.52799303 -0.01749502 -10.96147592 0.01190641 0 0 Z " fill="#E2B016" transform="translate(62.296875,1.6640625)"/>
<path d="M0 0 C3.625 0.25 3.625 0.25 5.4375 1.375 C7.01769525 3.87004513 7.80849681 6.42364281 8.625 9.25 C8.769375 7.950625 8.91375 6.65125 9.0625 5.3125 C9.5 1.375 9.5 1.375 10.625 0.25 C12.95797433 0.20907063 15.29205225 0.20758277 17.625 0.25 C18.75273872 3.80918697 18.67121252 7.01642641 18.5390625 10.73046875 C18.49523437 11.97634766 18.45140625 13.22222656 18.40625 14.50585938 C18.3546875 15.80330078 18.303125 17.10074219 18.25 18.4375 C18.20617187 19.74654297 18.16234375 21.05558594 18.1171875 22.40429688 C17.75413999 32.12086001 17.75413999 32.12086001 16.625 33.25 C13.95441149 33.39115161 11.30067762 33.29247107 8.625 33.25 C7.97742375 31.81328432 7.33200547 30.37559584 6.6875 28.9375 C6.32785156 28.13699219 5.96820313 27.33648437 5.59765625 26.51171875 C4.625 24.25 4.625 24.25 3.625 21.25 C3.295 25.21 2.965 29.17 2.625 33.25 C-0.345 33.25 -3.315 33.25 -6.375 33.25 C-6.60739482 25.21946784 -6.32390867 17.41517807 -5.4375 9.4375 C-5.35064941 8.6429541 -5.26379883 7.8484082 -5.17431641 7.02978516 C-4.38246076 0.32462672 -4.38246076 0.32462672 0 0 Z " fill="#45195F" transform="translate(196.375,140.75)"/>
<path d="M0 0 C3.5 0.125 3.5 0.125 4.5 1.125 C4.58713831 2.83272358 4.60700007 4.54398649 4.59765625 6.25390625 C4.59443359 7.28837891 4.59121094 8.32285156 4.58789062 9.38867188 C4.57951172 10.47728516 4.57113281 11.56589844 4.5625 12.6875 C4.55798828 13.77998047 4.55347656 14.87246094 4.54882812 15.99804688 C4.53699826 18.70708495 4.52051543 21.41601599 4.5 24.125 C5.49 23.795 6.48 23.465 7.5 23.125 C7.55534912 22.4637915 7.61069824 21.80258301 7.66772461 21.12133789 C7.91965715 18.1429762 8.17848502 15.16525375 8.4375 12.1875 C8.56801758 10.62612305 8.56801758 10.62612305 8.70117188 9.03320312 C8.78818359 8.04384766 8.87519531 7.05449219 8.96484375 6.03515625 C9.043396 5.11871338 9.12194824 4.20227051 9.20288086 3.25805664 C9.5 1.125 9.5 1.125 10.5 0.125 C14 0 14 0 17.5 0.125 C18.5 1.125 18.5 1.125 18.56933594 3.25463867 C18.47731447 6.27468803 18.37098145 9.29346281 18.25 12.3125 C18.22292969 13.35470703 18.19585937 14.39691406 18.16796875 15.47070312 C17.90962263 22.02519427 17.49331517 27.08007595 12.6875 31.96875 C9.84825154 33.46949561 7.70282127 33.59297179 4.5 33.625 C3.46875 33.6559375 2.4375 33.686875 1.375 33.71875 C-1.5 33.125 -1.5 33.125 -3.85546875 31.10546875 C-5.94522614 27.31809372 -5.98394658 24.14142597 -5.8125 19.9375 C-5.79630615 19.18662109 -5.7801123 18.43574219 -5.76342773 17.66210938 C-5.29876383 0.18924157 -5.29876383 0.18924157 0 0 Z " fill="#431C5A" transform="translate(81.5,140.875)"/>
<path d="M0 0 C0.08746928 4.04152915 0.14054982 8.08281305 0.1875 12.125 C0.21263672 13.26710937 0.23777344 14.40921875 0.26367188 15.5859375 C0.33888813 24.21073528 -1.05042008 29.52545714 -7 36 C-11.31668728 39.47733142 -14.67468512 39.27077872 -20 39 C-19.67 38.45859375 -19.34 37.9171875 -19 37.359375 C-17.77215865 34.46243682 -17.87009461 32.38396754 -18 29.25 C-18.08602598 24.8089086 -17.71080075 21.24767292 -16.4453125 17.0234375 C-15.57625441 13.07455952 -15.85171282 9.02023025 -16 5 C-15.34 5 -14.68 5 -14 5 C-14 4.01 -14 3.02 -14 2 C-14.66 1.67 -15.32 1.34 -16 1 C-13.89594609 0.83191581 -11.79175242 0.66558052 -9.6875 0.5 C-8.51574219 0.4071875 -7.34398437 0.314375 -6.13671875 0.21875 C-4.094806 0.07635011 -2.0468721 0 0 0 Z " fill="#9804EA" transform="translate(45,117)"/>
<path d="M0 0 C0.721875 0.103125 1.44375 0.20625 2.1875 0.3125 C1.6925 0.84875 1.1975 1.385 0.6875 1.9375 C-1.25655832 5.01559234 -1.421176 6.73652849 -0.8125 10.3125 C4.09987749 14.16274181 8.83994566 14.45372921 14.85546875 14.48828125 C16.40431027 14.51149281 17.95313842 14.53561068 19.50195312 14.56054688 C21.93311341 14.59553288 24.36378561 14.62493778 26.79516602 14.63842773 C43.63846792 14.75006377 43.63846792 14.75006377 50.1875 19.3125 C55.03464625 24.40821786 55.54572448 28.71656309 55.46484375 35.51953125 C55.03659172 39.83221013 53.85239226 41.87619156 51.1875 45.3125 C48.125 47.8125 48.125 47.8125 45.1875 49.3125 C44.1975 48.9825 43.2075 48.6525 42.1875 48.3125 C42.991875 47.61125 43.79625 46.91 44.625 46.1875 C47.5543536 42.90090816 47.93818068 41.63403492 48.1875 37.3125 C48.26097656 36.58417969 48.33445313 35.85585937 48.41015625 35.10546875 C48.69802918 30.6545103 48.67565495 28.92911678 45.8125 25.3125 C41.72032468 22.19465214 38.86169568 22.15323648 33.87109375 22.1015625 C32.36913029 22.07346365 30.86717733 22.04479904 29.36523438 22.015625 C27.00448239 21.97460666 24.64391996 21.937713 22.28295898 21.91113281 C2.11178645 21.66449467 2.11178645 21.66449467 -4.8125 15.75 C-7.02843267 13.04933206 -7.72822049 11.94459631 -8.1875 8.5 C-7.8125 5.3125 -7.8125 5.3125 -5.625 2.4375 C-2.8125 0.3125 -2.8125 0.3125 0 0 Z " fill="#D98B2C" transform="translate(70.8125,50.6875)"/>
<path d="M0 0 C0.77074403 4.05844905 -0.06269028 6.48056254 -2.1875 9.8671875 C-3.11099158 11.21284665 -4.04895178 12.54867329 -5 13.875 C-5.71542969 14.90753906 -5.71542969 14.90753906 -6.4453125 15.9609375 C-7.61779549 17.64931301 -8.80724549 19.32588384 -10 21 C-7.03 20.67 -4.06 20.34 -1 20 C-1 22.97 -1 25.94 -1 29 C-5.35662826 30.65433237 -9.03146618 31.29627689 -13.6875 31.3125 C-14.80511719 31.32925781 -15.92273438 31.34601563 -17.07421875 31.36328125 C-20 31 -20 31 -21.95703125 29.91796875 C-23.69436235 26.72310144 -22.8722253 24.44185169 -22 21 C-20.15234375 17.69140625 -20.15234375 17.69140625 -17.9375 14.5625 C-17.20402344 13.51191406 -16.47054688 12.46132812 -15.71484375 11.37890625 C-15.14894531 10.59386719 -14.58304687 9.80882812 -14 9 C-16.31 9 -18.62 9 -21 9 C-22.53445094 5.93109813 -21.54984289 3.29905734 -21 0 C-5.37804878 -3.58536585 -5.37804878 -3.58536585 0 0 Z " fill="#45185E" transform="translate(291,143)"/>
<path d="M0 0 C-0.886875 0.515625 -1.77375 1.03125 -2.6875 1.5625 C-8.92030943 5.7505971 -11.7448155 11.89443419 -13.6875 18.9375 C-13.88666016 19.58267578 -14.08582031 20.22785156 -14.29101562 20.89257812 C-18.56929921 35.77539415 -18.26076736 51.17365833 -18.125 66.5 C-18.11494001 68.49869338 -18.10581955 70.49739172 -18.09765625 72.49609375 C-18.07590525 77.33085455 -18.0415456 82.16537045 -18 87 C-19.98 87 -21.96 87 -24 87 C-24.84951253 76.79067983 -25.13096188 66.58974471 -25.17724609 56.34768677 C-25.18724467 54.36317732 -25.20677873 52.37872313 -25.2265625 50.39428711 C-25.24362337 33.60745889 -23.57497324 17.02476787 -12 4 C-5.1561093 -1.79492053 -5.1561093 -1.79492053 0 0 Z " fill="#31CCF4" transform="translate(45,5)"/>
<path d="M0 0 C1.96875 0.8125 1.96875 0.8125 3.015625 2.66015625 C3.24765625 3.39105469 3.4796875 4.12195313 3.71875 4.875 C3.96109375 5.60847656 4.2034375 6.34195313 4.453125 7.09765625 C4.62328125 7.66355469 4.7934375 8.22945312 4.96875 8.8125 C7.6152835 6.1659665 8.56816997 3.25028736 9.96875 -0.1875 C12.60875 0.1425 15.24875 0.4725 17.96875 0.8125 C17.37765303 5.57776326 15.92721065 9.62954438 14.03125 14 C11.43885399 20.18322517 9.77518574 26.12464495 8.96875 32.8125 C5.99875 32.8125 3.02875 32.8125 -0.03125 32.8125 C0.154375 30.8634375 0.154375 30.8634375 0.34375 28.875 C0.3972365 22.66165194 -1.68353951 17.41547482 -3.89697266 11.70336914 C-5.26793 8.14482656 -6.03125 5.6787932 -6.03125 1.8125 C-3.86051459 0.4945535 -2.56624508 -0.23688416 0 0 Z " fill="#471C5F" transform="translate(171.03125,141.1875)"/>
<path d="M0 0 C0.495 1.485 0.495 1.485 1 3 C-0.77442409 5.99816485 -2.53540571 8.53540571 -5 11 C-5 11.33 -5 11.66 -5 12 C-6.778302 12.029729 -6.778302 12.029729 -8.5925293 12.06005859 C-13.00029367 12.13625789 -17.4077341 12.22495323 -21.81518555 12.31738281 C-23.72104486 12.35561339 -25.62697487 12.39047655 -27.53295898 12.421875 C-30.27613553 12.46765422 -33.01882788 12.5256273 -35.76171875 12.5859375 C-37.03543587 12.60326431 -37.03543587 12.60326431 -38.33488464 12.62094116 C-44.44001869 12.71478067 -44.44001869 12.71478067 -50 15 C-51.9014699 18.3898121 -52.27921226 21.45754948 -52.4140625 25.30078125 C-52.45273438 26.27724609 -52.49140625 27.25371094 -52.53125 28.25976562 C-52.5621875 29.26716797 -52.593125 30.27457031 -52.625 31.3125 C-52.66367188 32.33923828 -52.70234375 33.36597656 -52.7421875 34.42382812 C-52.83614897 36.94904265 -52.9218154 39.47425592 -53 42 C-53.33 42 -53.66 42 -54 42 C-54.66 35.4 -55.32 28.8 -56 22 C-56.66 27.28 -57.32 32.56 -58 38 C-58.33 38 -58.66 38 -59 38 C-59.08820927 34.83351345 -59.1407905 31.66734908 -59.1875 28.5 C-59.21263672 27.613125 -59.23777344 26.72625 -59.26367188 25.8125 C-59.3297529 19.82115398 -58.57480847 15.43775027 -56 10 C-52.00719216 6.82622967 -47.99003811 5.88370911 -42.96923828 5.8581543 C-42.18807648 5.85111984 -41.40691467 5.84408539 -40.6020813 5.83683777 C-39.34885574 5.83059135 -39.34885574 5.83059135 -38.0703125 5.82421875 C-36.28774858 5.80102277 -34.50519645 5.77690552 -32.72265625 5.75195312 C-29.92260808 5.71684819 -27.12299539 5.68749039 -24.32275391 5.67407227 C-21.61307612 5.65855975 -18.90465612 5.61833674 -16.1953125 5.57421875 C-15.36387726 5.57612717 -14.53244202 5.57803558 -13.67581177 5.58000183 C-7.79386532 5.45682345 -4.25823288 4.25823288 0 0 Z " fill="#103451" transform="translate(119,89)"/>
<path d="M0 0 C5.94 0 11.88 0 18 0 C18 0.33 18 0.66 18 1 C16.02 1 14.04 1 12 1 C11.97090237 4.24998112 11.95316839 7.49992857 11.9375 10.75 C11.92912109 11.67039063 11.92074219 12.59078125 11.91210938 13.5390625 C11.90888672 14.42851562 11.90566406 15.31796875 11.90234375 16.234375 C11.89710693 17.05131836 11.89187012 17.86826172 11.88647461 18.70996094 C11.9053091 21.00544464 11.9053091 21.00544464 12.65844727 23.12597656 C12.82751587 24.05361816 12.82751587 24.05361816 13 25 C10.5625 27.75 10.5625 27.75 8 30 C8.68732957 32.74931827 9.35560222 34.53418821 11.69140625 36.22265625 C13.43116325 37.20324656 15.2137611 38.10688055 17 39 C15 40 15 40 13.23046875 39.43359375 C6.98594131 36.38893888 2.65632625 32.62237916 0 26 C-0.22705078 23.15917969 -0.22705078 23.15917969 -0.1953125 19.921875 C-0.18886719 18.76171875 -0.18242188 17.6015625 -0.17578125 16.40625 C-0.15902344 15.1996875 -0.14226562 13.993125 -0.125 12.75 C-0.11597656 11.52796875 -0.10695312 10.3059375 -0.09765625 9.046875 C-0.07409603 6.03116634 -0.03822539 3.01555842 0 0 Z " fill="#44007C" transform="translate(3,117)"/>
<path d="M0 0 C6.90036815 0.55202945 11.19978402 2.77526667 15.75 7.9375 C19.54642994 13.10486298 20 15.41146407 20 22 C14.06 22 8.12 22 2 22 C0.50640338 16.02561354 -0.23783574 12.36745835 -0.125 6.5 C-0.10695313 5.2728125 -0.08890625 4.045625 -0.0703125 2.78125 C-0.04710938 1.8634375 -0.02390625 0.945625 0 0 Z " fill="#8709D1" transform="translate(25,93)"/>
<path d="M0 0 C0.66 2.64 1.32 5.28 2 8 C1.01 8 0.02 8 -1 8 C-1 7.01 -1 6.02 -1 5 C-1.66 5 -2.32 5 -3 5 C-2.01 6.98 -1.02 8.96 0 11 C1.32 11 2.64 11 4 11 C4 11.99 4 12.98 4 14 C0.71303767 14.79953138 -0.71023192 15.09658936 -4 14 C-4.33 15.65 -4.66 17.3 -5 19 C-4.34 19 -3.68 19 -3 19 C-2.67 17.68 -2.34 16.36 -2 15 C-0.02 15.99 1.96 16.98 4 18 C3.67 19.32 3.34 20.64 3 22 C2.34 22 1.68 22 1 22 C1 22.99 1 23.98 1 25 C-1 24 -1 24 -3 21 C-4.32 21.33 -5.64 21.66 -7 22 C-7.33 23.32 -7.66 24.64 -8 26 C-8.66 26 -9.32 26 -10 26 C-10 27.32 -10 28.64 -10 30 C-13 29 -13 29 -15 26 C-15.56001972 17.75765847 -12.91998619 9.17431436 -9 2 C-5.96289472 -0.07426564 -3.6385797 -0.20214332 0 0 Z " fill="#481B62" transform="translate(234,141)"/>
<path d="M0 0 C4.95 0 9.9 0 15 0 C15 0.33 15 0.66 15 1 C11.37 1.33 7.74 1.66 4 2 C4 2.99 4 3.98 4 5 C3.34 5 2.68 5 2 5 C2.09539063 5.6290625 2.19078125 6.258125 2.2890625 6.90625 C2.94690419 11.98539977 3.01520719 15.75380848 1.46875 20.71875 C0.62638818 24.81824421 1.02268731 28.98420184 1.22265625 33.14453125 C1 36 1 36 -0.33984375 37.90234375 C-2 39 -2 39 -4.625 38.75 C-7 38 -7 38 -8 37 C-7.91036938 35.30858344 -7.75422324 33.62040398 -7.5625 31.9375 C-7.46066406 31.01839844 -7.35882812 30.09929687 -7.25390625 29.15234375 C-7.17011719 28.44207031 -7.08632813 27.73179687 -7 27 C-6.34 27 -5.68 27 -5 27 C-5.66 26.34 -6.32 25.68 -7 25 C-7.265625 22.94140625 -7.265625 22.94140625 -7.25 20.5625 C-7.25515625 19.78003906 -7.2603125 18.99757812 -7.265625 18.19140625 C-7 16 -7 16 -5 13 C-4.34 13 -3.68 13 -3 13 C-3.33 11.35 -3.66 9.7 -4 8 C-3.34 8 -2.68 8 -2 8 C-1.34 5.36 -0.68 2.72 0 0 Z " fill="#7C00C7" transform="translate(27,117)"/>
<path d="M0 0 C2.64 0 5.28 0 8 0 C8.82047572 22.40354527 8.82047572 22.40354527 2.3984375 29.859375 C0.9980309 31.30624058 -0.49313349 32.66436832 -2 34 C-2.66 33.67 -3.32 33.34 -4 33 C-3.79503906 32.29359375 -3.59007813 31.5871875 -3.37890625 30.859375 C-0.68925312 20.61552861 -0.30488491 10.54481263 0 0 Z " fill="#C44CFE" transform="translate(35,119)"/>
<path d="M0 0 C-0.680625 0.556875 -1.36125 1.11375 -2.0625 1.6875 C-2.701875 2.450625 -3.34125 3.21375 -4 4 C-3.72197162 6.39388923 -3.72197162 6.39388923 -3 9 C-3.35971345 13.10073338 -3.86817147 16.44695245 -6 20 C-4.02 20 -2.04 20 0 20 C0 20.33 0 20.66 0 21 C-5.94 21 -11.88 21 -18 21 C-19.50405599 16.48783203 -17.86773396 13.24418923 -16 9 C-12.52660079 3.7402812 -6.67460369 -2.2248679 0 0 Z " fill="#53058D" transform="translate(21,94)"/>
<path d="M0 0 C0.33 0 0.66 0 1 0 C3.04509727 16.7077143 3.22918189 33.18333841 3 50 C1.68 49.67 0.36 49.34 -1 49 C-1.33 51.64 -1.66 54.28 -2 57 C-2.33 57 -2.66 57 -3 57 C-3.05017659 51.59636727 -3.08607889 46.19287596 -3.10986328 40.7890625 C-3.11979909 38.95830924 -3.13335237 37.12757132 -3.15087891 35.296875 C-3.25849272 23.75054591 -3.11454062 12.39167422 -1 1 C-0.67 0.67 -0.34 0.34 0 0 Z " fill="#1D5F81" transform="translate(63,110)"/>
<path d="M0 0 C2 0.90625 2 0.90625 3.265625 3.41015625 C3.59046875 4.41949219 3.9153125 5.42882812 4.25 6.46875 C4.58515625 7.48066406 4.9203125 8.49257812 5.265625 9.53515625 C5.62914062 10.70884766 5.62914062 10.70884766 6 11.90625 C4.68 11.90625 3.36 11.90625 2 11.90625 C2 15.73400724 2.72030113 16.5417939 5.0625 19.59375 C7.28032561 23.38551636 7.3452506 25.59061751 7 29.90625 C7.66 29.90625 8.32 29.90625 9 29.90625 C9 30.89625 9 31.88625 9 32.90625 C6.03 32.90625 3.06 32.90625 0 32.90625 C0.185625 30.9571875 0.185625 30.9571875 0.375 28.96875 C0.4284865 22.75540194 -1.65228951 17.50922482 -3.86572266 11.79711914 C-5.23668 8.23857656 -6 5.7725432 -6 1.90625 C-3.87654398 0.61700884 -2.51170055 -0.11773596 0 0 Z " fill="#431B5A" transform="translate(171,141.09375)"/>
<path d="M0 0 C1.32 0 2.64 0 4 0 C4.3355451 4.07409572 4.65661969 8.14904854 4.96435547 12.2253418 C5.07106238 13.6117208 5.18171133 14.99780228 5.29638672 16.38354492 C5.46057731 18.37596203 5.60940149 20.36962665 5.7578125 22.36328125 C5.89920654 24.16212769 5.89920654 24.16212769 6.04345703 25.99731445 C6 29 6 29 4 32 C2.68 31.67 1.36 31.34 0 31 C-0.495 32.485 -0.495 32.485 -1 34 C-1.625 32.125 -1.625 32.125 -2 30 C-1.34 29.34 -0.68 28.68 0 28 C0.16677282 24.41656024 0.16677282 24.41656024 0 21 C-1.98 21 -3.96 21 -6 21 C-5.855625 20.10796875 -5.71125 19.2159375 -5.5625 18.296875 C-5.376875 17.12640625 -5.19125 15.9559375 -5 14.75 C-4.814375 13.58984375 -4.62875 12.4296875 -4.4375 11.234375 C-3.91063669 7.88332154 -3.91063669 7.88332154 -4 4 C-3.34 4 -2.68 4 -2 4 C-1.34 2.68 -0.68 1.36 0 0 Z " fill="#6408A5" transform="translate(21,93)"/>
<path d="M0 0 C0.66 0.66 1.32 1.32 2 2 C2.99 1.34 3.98 0.68 5 0 C6.43520129 12.39142544 7.29087369 24.52475044 7 37 C5.02 37 3.04 37 1 37 C0.10412395 24.6497088 -0.11522956 12.38077633 0 0 Z " fill="#1C789E" transform="translate(20,55)"/>
<path d="M0 0 C1.87558594 0.00966797 1.87558594 0.00966797 3.7890625 0.01953125 C5.09101562 0.03628906 6.39296875 0.05304687 7.734375 0.0703125 C9.05179688 0.07933594 10.36921875 0.08835938 11.7265625 0.09765625 C14.97934962 0.12122717 18.23177089 0.15413228 21.484375 0.1953125 C21.484375 0.5253125 21.484375 0.8553125 21.484375 1.1953125 C18.514375 1.1953125 15.544375 1.1953125 12.484375 1.1953125 C12.484375 2.1853125 12.484375 3.1753125 12.484375 4.1953125 C16.114375 4.1953125 19.744375 4.1953125 23.484375 4.1953125 C23.484375 4.5253125 23.484375 4.8553125 23.484375 5.1953125 C22.24518311 5.25477051 22.24518311 5.25477051 20.98095703 5.31542969 C17.86756668 5.47316899 14.75552497 5.64657867 11.64355469 5.83007812 C9.65362897 5.94280555 7.66273518 6.03800963 5.671875 6.1328125 C-6.68308289 6.84086207 -6.68308289 6.84086207 -17.2265625 12.78125 C-18.79480833 14.56732271 -18.79480833 14.56732271 -20.515625 17.1953125 C-20.845625 16.2053125 -21.175625 15.2153125 -21.515625 14.1953125 C-20.22265625 12.0390625 -20.22265625 12.0390625 -18.328125 9.6953125 C-17.71582031 8.921875 -17.10351562 8.1484375 -16.47265625 7.3515625 C-11.57078838 1.95070209 -7.27945112 -0.06617683 0 0 Z " fill="#E56420" transform="translate(54.515625,1.8046875)"/>
<path d="M0 0 C6.09459794 0.23900384 6.09459794 0.23900384 8.54296875 2.296875 C12.89640007 7.45460595 13.35466592 11.70337803 13.27734375 18.20703125 C12.84909172 22.51971013 11.66489226 24.56369156 9 28 C5.9375 30.5 5.9375 30.5 3 32 C2.01 31.67 1.02 31.34 0 31 C0.804375 30.29875 1.60875 29.5975 2.4375 28.875 C5.3668536 25.58840816 5.75068068 24.32153492 6 20 C6.07347656 19.27167969 6.14695312 18.54335937 6.22265625 17.79296875 C6.50926803 13.36150976 6.51202778 11.63329752 3.625 8.0625 C2.75875 7.381875 1.8925 6.70125 1 6 C0.34 5.34 -0.32 4.68 -1 4 C-0.625 1.875 -0.625 1.875 0 0 Z " fill="#DCB01F" transform="translate(113,68)"/>
<path d="M0 0 C8.73315649 0.4043128 15.5434925 2.93479599 22 9 C23.05885037 12.1765511 23.20049266 14.59988011 23.25 17.9375 C23.27578125 18.97777344 23.3015625 20.01804687 23.328125 21.08984375 C22.96423357 24.31721419 22.16358594 25.63713641 20 28 C20 26.68 20 25.36 20 24 C18.35 24.33 16.7 24.66 15 25 C15.33 24.01 15.66 23.02 16 22 C16.53856933 17.36477214 16.45178019 13.92093654 14.375 9.6875 C10.2535813 5.02378937 5.94438245 2.69839498 0 1 C0 0.67 0 0.34 0 0 Z " fill="#0B1324" transform="translate(111,8)"/>
<path d="M0 0 C0.66 1.32 1.32 2.64 2 4 C-0.64738916 5.4606285 -1.89448334 6 -5 6 C-5.33 15.57 -5.66 25.14 -6 35 C-6.33 35 -6.66 35 -7 35 C-7.66 28.4 -8.32 21.8 -9 15 C-9.66 20.28 -10.32 25.56 -11 31 C-11.33 31 -11.66 31 -12 31 C-12.08820927 27.83351345 -12.1407905 24.66734908 -12.1875 21.5 C-12.21263672 20.613125 -12.23777344 19.72625 -12.26367188 18.8125 C-12.32976321 12.82021891 -11.57267618 8.43937249 -9 3 C-5.6535137 0.25416509 -4.4066945 0 0 0 Z " fill="#164866" transform="translate(72,96)"/>
<path d="M0 0 C0.721875 0.103125 1.44375 0.20625 2.1875 0.3125 C1.6925 0.84875 1.1975 1.385 0.6875 1.9375 C-1.25655832 5.01559234 -1.421176 6.73652849 -0.8125 10.3125 C1.45566301 12.15675989 1.45566301 12.15675989 4.1875 13.3125 C7.1875 15.3125 7.1875 15.3125 8.1875 18.3125 C10.18766466 19.52132096 10.18766466 19.52132096 12.1875 20.3125 C5.25660016 20.81453701 0.81987569 20.56551838 -4.8125 16.3125 C-7.05726004 13.56085867 -7.73012175 11.80676947 -8.3125 8.3125 C-7.50984906 3.49659439 -4.9415849 0.54906499 0 0 Z " fill="#F02524" transform="translate(70.8125,50.6875)"/>
<path d="M0 0 C1.05960938 0.00676758 1.05960938 0.00676758 2.140625 0.01367188 C3.88545275 0.02546125 5.630237 0.04339676 7.375 0.0625 C7.705 1.0525 8.035 2.0425 8.375 3.0625 C14.975 3.3925 21.575 3.7225 28.375 4.0625 C28.375 4.3925 28.375 4.7225 28.375 5.0625 C27.48828613 5.08231934 26.60157227 5.10213867 25.68798828 5.12255859 C22.35164336 5.20134247 19.01568935 5.28805244 15.6796875 5.37988281 C14.24454487 5.41781893 12.80931854 5.45272862 11.37402344 5.484375 C-4.33114344 5.15793357 -4.33114344 5.15793357 -17.625 12.0625 C-17.5408797 9.20240965 -17.05681261 7.51601173 -15.0703125 5.4296875 C-9.86171781 0.9559153 -6.89728536 -0.08271652 0 0 Z " fill="#1D97C1" transform="translate(80.625,43.9375)"/>
<path d="M0 0 C0.33 0 0.66 0 1 0 C0.34 9.9 -0.32 19.8 -1 30 C-1.33 30 -1.66 30 -2 30 C-2.33 27.69 -2.66 25.38 -3 23 C-3.99 24.32 -4.98 25.64 -6 27 C-7.80594522 19.0452413 -7.20869931 11.00763294 -6 3 C-5.195625 2.690625 -4.39125 2.38125 -3.5625 2.0625 C-1.10919595 1.23664655 -1.10919595 1.23664655 0 0 Z " fill="#2892B8" transform="translate(27,33)"/>
<path d="M0 0 C5.46462146 1.2708422 7.87881457 3.36281022 11 8 C12.4 13.2 12.4 13.2 11 16 C7.7 16 4.4 16 1 16 C0 12 0 12 0.5 8.5625 C0.96284674 5.26471697 0.86436663 3.16934429 0 0 Z " fill="#A203F8" transform="translate(31,98)"/>
<path d="M0 0 C0.33 0 0.66 0 1 0 C1 5.28 1 10.56 1 16 C1.66 16 2.32 16 3 16 C3 12.04 3 8.08 3 4 C3.33 4 3.66 4 4 4 C5.02472362 14.35702803 5.1050173 24.60328698 5 35 C4.01 35 3.02 35 2 35 C1.01 35.495 1.01 35.495 0 36 C-1.53937439 32.92125123 -1.00296786 29.73263303 -0.87890625 26.3671875 C-0.84348976 25.23943405 -0.84348976 25.23943405 -0.80735779 24.08889771 C-0.7306938 21.68407434 -0.64668156 19.27957082 -0.5625 16.875 C-0.50928203 15.24610948 -0.45654161 13.61720328 -0.40429688 11.98828125 C-0.27507502 7.9919844 -0.13926173 3.99595908 0 0 Z " fill="#23779D" transform="translate(61,143)"/>
<path d="M0 0 C2.01608291 -0.0021906 4.03162025 -0.02043816 6.04760742 -0.03930664 C15.07285893 -0.05262477 23.95843949 0.30987696 32.5847168 3.18530273 C32.9147168 2.52530273 33.2447168 1.86530273 33.5847168 1.18530273 C35.8947168 3.82530273 38.2047168 6.46530273 40.5847168 9.18530273 C40.2547168 9.84530273 39.9247168 10.50530273 39.5847168 11.18530273 C38.7803418 10.42217773 37.9759668 9.65905273 37.1472168 8.87280273 C30.08824892 3.0619246 21.78919418 2.72843765 12.98706055 2.67358398 C11.91218887 2.65563278 10.8373172 2.63768158 9.72987366 2.6191864 C6.3273602 2.56539741 2.92498448 2.53128838 -0.4777832 2.49780273 C-2.7974637 2.46460197 -5.11712609 2.43010979 -7.43676758 2.39428711 C-13.09614917 2.30968926 -18.7555493 2.24120762 -24.4152832 2.18530273 C-24.4152832 1.85530273 -24.4152832 1.52530273 -24.4152832 1.18530273 C-16.27237033 0.25825029 -8.1927972 -0.00099271 0 0 Z " fill="#D6A330" transform="translate(91.415283203125,5.814697265625)"/>
<path d="M0 0 C1.0625 1.875 1.0625 1.875 2 4 C1.67 4.66 1.34 5.32 1 6 C1.66 6 2.32 6 3 6 C3.33 4.68 3.66 3.36 4 2 C6.97 3.485 6.97 3.485 10 5 C9.67 6.32 9.34 7.64 9 9 C8.34 9 7.68 9 7 9 C7 9.99 7 10.98 7 12 C5 11 5 11 3 8 C1.68 8.33 0.36 8.66 -1 9 C-1.33 10.32 -1.66 11.64 -2 13 C-2.66 13 -3.32 13 -4 13 C-4 14.32 -4 15.64 -4 17 C-7 16 -7 16 -9 13 C-8.68074747 9.16896958 -8.15546298 7.23319447 -6 4 C-4.68 4 -3.36 4 -2 4 C-1.34 2.68 -0.68 1.36 0 0 Z " fill="#481561" transform="translate(228,154)"/>
<path d="M0 0 C1.28487451 2.56974902 0.71420931 3.26140934 0 6 C-0.25907188 9.13764832 -0.4424607 12.27478713 -0.62109375 15.41796875 C-0.74613281 16.27003906 -0.87117187 17.12210938 -1 18 C-3.70879335 19.35439668 -6.00933268 19.06501451 -9 19 C-10.49810306 14.50569083 -8.8912487 11.22115205 -7 7 C-5.0911326 4.10977131 -3.15548893 1.57774446 0 0 Z " fill="#44017B" transform="translate(12,96)"/>
<path d="M0 0 C0.66 0.33 1.32 0.66 2 1 C2 2.32 2 3.64 2 5 C1.34 5 0.68 5 0 5 C0 10.61 0 16.22 0 22 C-5 20 -5 20 -7 18 C-6.57750635 12.66121662 -5.08788674 6.91267468 -3 2 C-2.01 1.34 -1.02 0.68 0 0 Z " fill="#471962" transform="translate(98,141)"/>
<path d="M0 0 C2.65961524 0.62899653 5.11813043 0.5910881 7.84765625 0.55859375 C8.8325 0.54957031 9.81734375 0.54054687 10.83203125 0.53125 C11.5796875 0.51964844 12.32734375 0.50804687 13.09765625 0.49609375 C13.09765625 1.48609375 13.09765625 2.47609375 13.09765625 3.49609375 C2.20765625 3.49609375 -8.68234375 3.49609375 -19.90234375 3.49609375 C-19.90234375 2.50609375 -19.90234375 1.51609375 -19.90234375 0.49609375 C-5.18330524 -1.37299051 -5.18330524 -1.37299051 0 0 Z " fill="#EA9508" transform="translate(86.90234375,2.50390625)"/>
<path d="M0 0 C0.37106711 3.70006916 0.496179 5.38947523 -1.8984375 8.3359375 C-3.12433594 9.34527344 -3.12433594 9.34527344 -4.375 10.375 C-5.18710938 11.06335937 -5.99921875 11.75171875 -6.8359375 12.4609375 C-9 14 -9 14 -11 14 C-11 12.68 -11 11.36 -11 10 C-11.928125 10.37125 -12.85625 10.7425 -13.8125 11.125 C-14.864375 11.41375 -15.91625 11.7025 -17 12 C-17.99 11.34 -18.98 10.68 -20 10 C-18.865625 9.649375 -17.73125 9.29875 -16.5625 8.9375 C-11.98435593 7.25939025 -8.66005158 4.57133613 -4.98046875 1.42578125 C-3 0 -3 0 0 0 Z " fill="#216E8A" transform="translate(131,32)"/>
<path d="M0 0 C1.134375 0.020625 2.26875 0.04125 3.4375 0.0625 C4.56523872 3.62168697 4.48371252 6.82892641 4.3515625 10.54296875 C4.30773437 11.78884766 4.26390625 13.03472656 4.21875 14.31835938 C4.1671875 15.61580078 4.115625 16.91324219 4.0625 18.25 C4.01867187 19.55904297 3.97484375 20.86808594 3.9296875 22.21679688 C3.56663999 31.93336001 3.56663999 31.93336001 2.4375 33.0625 C-0.23308851 33.20365161 -2.88682238 33.10497107 -5.5625 33.0625 C-5.8925 32.0725 -6.2225 31.0825 -6.5625 30.0625 C-3.5925 30.3925 -0.6225 30.7225 2.4375 31.0625 C2.32230819 28.08266976 2.19559198 25.10404208 2.0625 22.125 C2.0315625 21.29419922 2.000625 20.46339844 1.96875 19.60742188 C1.70132297 13.88002631 0.81927413 8.62891529 -0.5625 3.0625 C-0.8925 3.0625 -1.2225 3.0625 -1.5625 3.0625 C-2.2225 5.3725 -2.8825 7.6825 -3.5625 10.0625 C-3.8925 10.0625 -4.2225 10.0625 -4.5625 10.0625 C-4.58939216 8.58343108 -4.60884621 7.10422517 -4.625 5.625 C-4.63660156 4.80128906 -4.64820313 3.97757813 -4.66015625 3.12890625 C-4.49001835 -0.47121162 -3.73687179 0.06555915 0 0 Z " fill="#402253" transform="translate(210.5625,140.9375)"/>
<path d="M0 0 C8.25 0 16.5 0 25 0 C24.01 0.33 23.02 0.66 22 1 C21.67 1.99 21.34 2.98 21 4 C14.570325 5.31890769 6.89974232 6.502972 1 3 C0.67 2.01 0.34 1.02 0 0 Z " fill="#EF6215" transform="translate(77,66)"/>
<path d="M0 0 C1.35015859 4.05047576 0.62084998 6.7920168 0 11 C4.95346987 12.59789351 9.13282415 11.28306814 14 10 C14.33 7.69 14.66 5.38 15 3 C15.99 3 16.98 3 18 3 C18 5.97 18 8.94 18 12 C13.64337174 13.65433237 9.96853382 14.29627689 5.3125 14.3125 C4.19488281 14.32925781 3.07726562 14.34601563 1.92578125 14.36328125 C-1 14 -1 14 -2.90234375 12.6953125 C-4 11 -4 11 -3.875 7.5625 C-3.04889986 4.1990923 -2.30691249 2.50751358 0 0 Z " fill="#3F1E55" transform="translate(272,160)"/>
<path d="M0 0 C0.66 0.66 1.32 1.32 2 2 C3.32 1.34 4.64 0.68 6 0 C6 5.61 6 11.22 6 17 C4.02 17 2.04 17 0 17 C0 11.39 0 5.78 0 0 Z " fill="#154C74" transform="translate(21,75)"/>
<path d="M0 0 C2.91517292 1.07401108 4.77810176 1.77810176 7 4 C7.66 3.34 8.32 2.68 9 2 C9 3.32 9 4.64 9 6 C9.185625 6.680625 9.37125 7.36125 9.5625 8.0625 C10 10 10 10 9 13 C7.02 13.33 5.04 13.66 3 14 C3.061875 13.236875 3.12375 12.47375 3.1875 11.6875 C2.96666486 8.52219632 2.30301466 8.01513783 0 6 C0 5.34 0 4.68 0 4 C-0.66 4 -1.32 4 -2 4 C-1.34 2.68 -0.68 1.36 0 0 Z " fill="#481761" transform="translate(152,155)"/>
<path d="M0 0 C0.33 0.99 0.66 1.98 1 3 C-1.14832274 6.89880793 -2.7803009 9.47280187 -7 11 C-10.234375 11.1953125 -10.234375 11.1953125 -13.75 11.125 C-14.92046875 11.10695313 -16.0909375 11.08890625 -17.296875 11.0703125 C-18.63492188 11.03550781 -18.63492188 11.03550781 -20 11 C-20 10.34 -20 9.68 -20 9 C-19.01 9 -18.02 9 -17 9 C-17 8.34 -17 7.68 -17 7 C-16.19175781 6.82984375 -15.38351563 6.6596875 -14.55078125 6.484375 C-6.52879087 4.76829045 -6.52879087 4.76829045 0 0 Z " fill="#08253F" transform="translate(119,89)"/>
<path d="M0 0 C2.97 0.495 2.97 0.495 6 1 C6 7.6 6 14.2 6 21 C4 18 4 18 3 15 C2.01 15.495 2.01 15.495 1 16 C0.67 12.04 0.34 8.08 0 4 C0.66 4 1.32 4 2 4 C2 3.01 2 2.02 2 1 C1.34 0.67 0.68 0.34 0 0 Z " fill="#9E04F0" transform="translate(29,118)"/>
<path d="M0 0 C0.98484375 0.01804688 1.9696875 0.03609375 2.984375 0.0546875 C4.10585938 0.08949219 4.10585938 0.08949219 5.25 0.125 C4.92 0.785 4.59 1.445 4.25 2.125 C1.5625 2.72265625 1.5625 2.72265625 -1.75 3.1875 C-5.56811932 3.43264104 -5.56811932 3.43264104 -8.75 5.125 C-7.43 5.785 -6.11 6.445 -4.75 7.125 C-5.74580078 7.45371094 -5.74580078 7.45371094 -6.76171875 7.7890625 C-12.78089469 9.95069357 -16.13295667 11.82000311 -19.75 17.125 C-20.08 16.135 -20.41 15.145 -20.75 14.125 C-19.45703125 11.96875 -19.45703125 11.96875 -17.5625 9.625 C-16.95019531 8.8515625 -16.33789062 8.078125 -15.70703125 7.28125 C-11.08580005 2.18959407 -6.9020462 -0.16433443 0 0 Z " fill="#C73B36" transform="translate(53.75,1.875)"/>
<path d="M0 0 C0.99 0 1.98 0 3 0 C4.44207941 2.88415883 4.09394887 5.41721528 4.0625 8.625 C4.05347656 9.81351563 4.04445313 11.00203125 4.03515625 12.2265625 C4.02355469 13.14179687 4.01195313 14.05703125 4 15 C4.66 15 5.32 15 6 15 C6 13.35 6 11.7 6 10 C6.66 10 7.32 10 8 10 C7.61104749 15.44533513 5.7851047 18.12686961 2 22 C-0.125 23.4375 -0.125 23.4375 -2 24 C-2.99 23.67 -3.98 23.34 -5 23 C-4.195625 22.29875 -3.39125 21.5975 -2.5625 20.875 C1.66285727 16.13435525 1.11188751 11.10856619 1.1328125 5.05078125 C1.07425092 2.79899176 1.07425092 2.79899176 0 0 Z " fill="#DDAF1C" transform="translate(118,76)"/>
<path d="M0 0 C0.02898097 4.10415189 0.0467922 8.20827753 0.0625 12.3125 C0.07087891 13.47974609 0.07925781 14.64699219 0.08789062 15.84960938 C0.09111328 16.96787109 0.09433594 18.08613281 0.09765625 19.23828125 C0.10289307 20.26993408 0.10812988 21.30158691 0.11352539 22.36450195 C0 25 0 25 -1 28 C-3.0625 28.6875 -3.0625 28.6875 -5 29 C-4.68289062 27.88625 -4.36578125 26.7725 -4.0390625 25.625 C-2.82319338 20.76152351 -2.55911855 15.99421565 -2.375 11 C-2.33632813 10.12988281 -2.29765625 9.25976562 -2.2578125 8.36328125 C-2.16459113 6.24249514 -2.08125864 4.12127815 -2 2 C-5.3 2.33 -8.6 2.66 -12 3 C-12 2.34 -12 1.68 -12 1 C-10.56274129 0.83126522 -9.12518162 0.66509263 -7.6875 0.5 C-6.88699219 0.4071875 -6.08648437 0.314375 -5.26171875 0.21875 C-3 0 -3 0 0 0 Z " fill="#9A12E5" transform="translate(45,117)"/>
<path d="M0 0 C1.68856305 3.27159091 1.23476751 6.29860363 1 9.9375 C0 10.9375 0 10.9375 -3.0625 11 C-4.031875 10.979375 -5.00125 10.95875 -6 10.9375 C-6.33 9.6175 -6.66 8.2975 -7 6.9375 C-6.01 6.6075 -5.02 6.2775 -4 5.9375 C-4 6.9275 -4 7.9175 -4 8.9375 C-2.68 8.9375 -1.36 8.9375 0 8.9375 C0.05749557 6.02119887 0.05749557 6.02119887 -1 2.9375 C-3.27444434 1.4448959 -5.37961699 0.79507989 -8 -0.0625 C-8.33 0.2675 -8.66 0.5975 -9 0.9375 C-10.66617115 0.97813832 -12.33388095 0.980221 -14 0.9375 C-14 1.5975 -14 2.2575 -14 2.9375 C-14.66 2.9375 -15.32 2.9375 -16 2.9375 C-16.66 6.2375 -17.32 9.5375 -18 12.9375 C-18.33 12.9375 -18.66 12.9375 -19 12.9375 C-19.33242149 8.78223143 -19.22487823 6.37892764 -17.3125 2.625 C-12.62622305 -2.82121375 -6.40357728 -3.40190043 0 0 Z " fill="#3F2252" transform="translate(163,143.0625)"/>
<path d="M0 0 C0.66 0 1.32 0 2 0 C3.05885037 3.1765511 3.20049266 5.59988011 3.25 8.9375 C3.28867188 10.49791016 3.28867188 10.49791016 3.328125 12.08984375 C2.96423357 15.31721419 2.16358594 16.63713641 0 19 C0 17.68 0 16.36 0 15 C-1.65 15.33 -3.3 15.66 -5 16 C-4.34 12.37 -3.68 8.74 -3 5 C-1.68 4.67 -0.36 4.34 1 4 C0.67 2.68 0.34 1.36 0 0 Z " fill="#163247" transform="translate(131,17)"/>
<path d="M0 0 C1.65 0 3.3 0 5 0 C3.68 0.33 2.36 0.66 1 1 C1.11042245 4.87555857 1.24092364 8.75019332 1.375 12.625 C1.4059375 13.71941406 1.436875 14.81382812 1.46875 15.94140625 C1.65674847 23.68918104 1.65674847 23.68918104 4 31 C6.49034386 32.29660434 6.49034386 32.29660434 9 33 C9.33 33.66 9.66 34.32 10 35 C11.65051288 36.11634152 11.65051288 36.11634152 13.5625 37.125 C14.696875 37.74375 15.83125 38.3625 17 39 C15 40 15 40 13.23046875 39.43359375 C6.98594131 36.38893888 2.65632625 32.62237916 0 26 C-0.22705078 23.15917969 -0.22705078 23.15917969 -0.1953125 19.921875 C-0.18886719 18.76171875 -0.18242188 17.6015625 -0.17578125 16.40625 C-0.15902344 15.1996875 -0.14226562 13.993125 -0.125 12.75 C-0.11597656 11.52796875 -0.10695312 10.3059375 -0.09765625 9.046875 C-0.07409513 6.03105218 -0.04119706 3.01562508 0 0 Z " fill="#34085F" transform="translate(3,117)"/>
<path d="M0 0 C0.33 0 0.66 0 1 0 C1 7.26 1 14.52 1 22 C2.32 22 3.64 22 5 22 C5 21.34 5 20.68 5 20 C6.32 20.33 7.64 20.66 9 21 C4.51925805 24.36055646 1.39449293 24.27429625 -4 24 C-3.67 23.45859375 -3.34 22.9171875 -3 22.359375 C-1.77215865 19.46243682 -1.87009461 17.38396754 -2 14.25 C-2.10136807 9.08022826 -1.5161668 4.9275421 0 0 Z " fill="#8B07D5" transform="translate(29,132)"/>
<path d="M0 0 C1.22126839 0.00212242 1.22126839 0.00212242 2.46720886 0.00428772 C5.05500031 0.00986308 7.64270367 0.02241101 10.23046875 0.03515625 C11.99023312 0.04017444 13.74999886 0.04473679 15.50976562 0.04882812 C19.81253369 0.05982444 24.11523631 0.07707204 28.41796875 0.09765625 C28.41796875 0.42765625 28.41796875 0.75765625 28.41796875 1.09765625 C27.53125488 1.11747559 26.64454102 1.13729492 25.73095703 1.15771484 C22.39461211 1.23649872 19.0586581 1.32320869 15.72265625 1.41503906 C14.28751362 1.45297518 12.85228729 1.48788487 11.41699219 1.51953125 C-4.28817469 1.19308982 -4.28817469 1.19308982 -17.58203125 8.09765625 C-17.26953125 5.72265625 -17.26953125 5.72265625 -16.58203125 3.09765625 C-11.35390031 -0.38776438 -6.12256286 -0.04033102 0 0 Z " fill="#3296BB" transform="translate(80.58203125,47.90234375)"/>
<path d="M0 0 C0.33 0 0.66 0 1 0 C0.85795259 1.58367747 0.71119847 3.16693318 0.5625 4.75 C0.48128906 5.63171875 0.40007813 6.5134375 0.31640625 7.421875 C0.03761535 9.69350452 -0.38790577 11.79851823 -1 14 C-2.32 14 -3.64 14 -5 14 C-6.20272819 11.59454362 -6.10071472 10.05003047 -6.0625 7.375 C-6.05347656 6.55773438 -6.04445313 5.74046875 -6.03515625 4.8984375 C-6.02355469 4.27195312 -6.01195313 3.64546875 -6 3 C-5.195625 2.690625 -4.39125 2.38125 -3.5625 2.0625 C-1.10919595 1.23664655 -1.10919595 1.23664655 0 0 Z " fill="#29ADD3" transform="translate(27,33)"/>
<path d="M0 0 C0.66 0.66 1.32 1.32 2 2 C-1.54950034 3.16306443 -4.55823948 2.92365049 -8.25 2.5625 C-9.32765625 2.46066406 -10.4053125 2.35882813 -11.515625 2.25390625 C-12.33546875 2.17011719 -13.1553125 2.08632812 -14 2 C-14.66 4.31 -15.32 6.62 -16 9 C-14.68 9 -13.36 9 -12 9 C-12 9.66 -12 10.32 -12 11 C-13.98 11 -15.96 11 -18 11 C-19.53445094 7.93109813 -18.54984289 5.29905734 -18 2 C-11.91464325 0.60336075 -6.2546706 -0.44676219 0 0 Z " fill="#422258" transform="translate(288,141)"/>
<path d="M0 0 C3.83475164 0.21912867 4.94164113 0.94028394 7.6875 3.75 C11.20728492 8.69672476 12.28273643 11.92116675 12 18 C8.37 18 4.74 18 1 18 C1 17.67 1 17.34 1 17 C3.64 17 6.28 17 9 17 C8.6173991 11.35663672 8.22146091 8.10084774 4 4 C1.88339573 2.68834743 1.88339573 2.68834743 0 2 C0 1.34 0 0.68 0 0 Z " fill="#951AD9" transform="translate(33,97)"/>
<path d="M0 0 C0.99 0 1.98 0 3 0 C3 1.32 3 2.64 3 4 C3.99 3.67 4.98 3.34 6 3 C7.33106622 2.65772583 8.66400079 2.32248257 10 2 C10 3.65 10 5.3 10 7 C5.05 7 0.1 7 -5 7 C-1 1 -1 1 0 0 Z " fill="#491964" transform="translate(124,165)"/>
<path d="M0 0 C1.0625 1.875 1.0625 1.875 2 4 C1.67 4.66 1.34 5.32 1 6 C1.66 6 2.32 6 3 6 C3.33 4.68 3.66 3.36 4 2 C6.97 3.485 6.97 3.485 10 5 C9.67 6.32 9.34 7.64 9 9 C8.34 9 7.68 9 7 9 C7 9.99 7 10.98 7 12 C5 11 5 11 3 8 C-0.08365871 7.7497843 -0.08365871 7.7497843 -3 8 C-2.37240135 5.07120629 -1.41377341 2.63904371 0 0 Z " fill="#54296A" transform="translate(228,154)"/>
<path d="M0 0 C1.32 0 2.64 0 4 0 C3.8125 2.375 3.8125 2.375 3 5 C-0.34157247 6.94925061 -3.18115446 7.21821974 -7 7 C-6.01 5.68 -5.02 4.36 -4 3 C-8.29 2.67 -12.58 2.34 -17 2 C-17 1.67 -17 1.34 -17 1 C-15.85660156 1.01160156 -14.71320313 1.02320313 -13.53515625 1.03515625 C-12.04427246 1.04453288 -10.55338691 1.05363321 -9.0625 1.0625 C-8.30775391 1.07087891 -7.55300781 1.07925781 -6.77539062 1.08789062 C-4.85005687 1.09652441 -2.92464419 1.05224333 -1 1 C-0.67 0.67 -0.34 0.34 0 0 Z " fill="#2C7F9E" transform="translate(116,42)"/>
<path d="M0 0 C0.66 0.33 1.32 0.66 2 1 C3.15866976 6.35003168 3.26323976 11.66632103 2 17 C0.68 17 -0.64 17 -2 17 C-2.05418326 14.91695462 -2.09287551 12.83350232 -2.125 10.75 C-2.14820312 9.58984375 -2.17140625 8.4296875 -2.1953125 7.234375 C-2.0103949 4.17213954 -1.60823023 2.55797249 0 0 Z " fill="#9404E3" transform="translate(30,97)"/>
<path d="M0 0 C0.721875 0.103125 1.44375 0.20625 2.1875 0.3125 C1.4759375 1.116875 1.4759375 1.116875 0.75 1.9375 C-1.09436076 4.74092836 -1.43706847 7.00870258 -1.8125 10.3125 C-2.1425 10.3125 -2.4725 10.3125 -2.8125 10.3125 C-2.8125 8.6625 -2.8125 7.0125 -2.8125 5.3125 C-3.4725 5.3125 -4.1325 5.3125 -4.8125 5.3125 C-4.93719099 10.89080016 -4.93719099 10.89080016 -3.8125 16.3125 C-6.5034789 13.73852018 -7.68295077 12.28411926 -8.1875 8.5 C-7.8125 5.3125 -7.8125 5.3125 -5.625 2.4375 C-2.8125 0.3125 -2.8125 0.3125 0 0 Z " fill="#D62837" transform="translate(70.8125,50.6875)"/>
<path d="M0 0 C4.95 0 9.9 0 15 0 C15 0.33 15 0.66 15 1 C9.555 1.495 9.555 1.495 4 2 C4 2.99 4 3.98 4 5 C3.34 5 2.68 5 2 5 C1.87625 5.556875 1.7525 6.11375 1.625 6.6875 C0.94023145 9.22114364 0.00866237 11.57921032 -1 14 C-1.33 14 -1.66 14 -2 14 C-2 12.35 -2 10.7 -2 9 C-2.66 8.67 -3.32 8.34 -4 8 C-3.34 8 -2.68 8 -2 8 C-1.34 5.36 -0.68 2.72 0 0 Z " fill="#8506CF" transform="translate(27,117)"/>
<path d="M0 0 C2.64 0 5.28 0 8 0 C8 6.27 8 12.54 8 19 C7.67 19 7.34 19 7 19 C7 13.06 7 7.12 7 1 C5.02 1.66 3.04 2.32 1 3 C0.67 9.27 0.34 15.54 0 22 C-0.33 22 -0.66 22 -1 22 C-1.02887814 18.52085059 -1.04675687 15.04173169 -1.0625 11.5625 C-1.07087891 10.56927734 -1.07925781 9.57605469 -1.08789062 8.55273438 C-1.09111328 7.60849609 -1.09433594 6.66425781 -1.09765625 5.69140625 C-1.10289307 4.81685791 -1.10812988 3.94230957 -1.11352539 3.04125977 C-1 1 -1 1 0 0 Z " fill="#442956" transform="translate(123,141)"/>
<path d="M0 0 C1.65 0 3.3 0 5 0 C5.33 1.98 5.66 3.96 6 6 C6.66 6 7.32 6 8 6 C8 7.32 8 8.64 8 10 C6.35 10 4.7 10 3 10 C2.01 6.7 1.02 3.4 0 0 Z " fill="#522968" transform="translate(200,160)"/>
<path d="M0 0 C0.33 0 0.66 0 1 0 C1 3.96 1 7.92 1 12 C0.67 11.34 0.34 10.68 0 10 C-1.65 10.66 -3.3 11.32 -5 12 C-5.33 9.69 -5.66 7.38 -6 5 C-3 3 -3 3 0 3 C0 2.01 0 1.02 0 0 Z " fill="#6E02B5" transform="translate(24,94)"/>
<path d="M0 0 C0.4375 2.625 0.4375 2.625 0 6 C-2.0949488 8.33122122 -4.46073827 10.17328621 -7 12 C-6.68289062 11.38640625 -6.36578125 10.7728125 -6.0390625 10.140625 C-5.04371515 8.09005979 -4.47588139 6.22077983 -4 4 C-5.32 4.99 -6.64 5.98 -8 7 C-8.66 6.67 -9.32 6.34 -10 6 C-8.90398831 4.99106869 -7.79786082 3.99311775 -6.6875 3 C-6.07261719 2.443125 -5.45773438 1.88625 -4.82421875 1.3125 C-3 0 -3 0 0 0 Z " fill="#1A5372" transform="translate(131,32)"/>
<path d="M0 0 C0.99 0.33 1.98 0.66 3 1 C3 2.65 3 4.3 3 6 C2.34 6 1.68 6 1 6 C1 11.61 1 17.22 1 23 C0.34 23.33 -0.32 23.66 -1 24 C-1.02909763 20.75001888 -1.04683161 17.50007143 -1.0625 14.25 C-1.07087891 13.32960937 -1.07925781 12.40921875 -1.08789062 11.4609375 C-1.09111328 10.57148438 -1.09433594 9.68203125 -1.09765625 8.765625 C-1.10289307 7.94868164 -1.10812988 7.13173828 -1.11352539 6.29003906 C-1.00299021 4.06031865 -0.62055567 2.13866245 0 0 Z " fill="#422252" transform="translate(245,143)"/>
<path d="M0 0 C-1 2 -1 2 -4 4 C-4 4.99 -4 5.98 -4 7 C-4.99 7.33 -5.98 7.66 -7 8 C-7.66 8.66 -8.32 9.32 -9 10 C-9.66 9.67 -10.32 9.34 -11 9 C-9.53953488 2.42790698 -9.53953488 2.42790698 -7.1875 0.5625 C-4.71056999 -0.07442486 -2.54746027 -0.14152557 0 0 Z " fill="#421E58" transform="translate(234,141)"/>
<path d="M0 0 C3.64939813 0.91234953 5.71592813 1.72321202 8.4375 4.375 C10 7 10 7 9.75 9.3125 C9.5025 9.869375 9.255 10.42625 9 11 C8.2575 10.21625 7.515 9.4325 6.75 8.625 C4.45566682 6.43495469 2.87841142 5.17268614 0 4 C0 2.68 0 1.36 0 0 Z " fill="#C548FE" transform="translate(31,98)"/>
<path d="M0 0 C0.99 0 1.98 0 3 0 C3 1.65 3 3.3 3 5 C3.66 5 4.32 5 5 5 C5 6.65 5 8.3 5 10 C4.34 10 3.68 10 3 10 C3 11.65 3 13.3 3 15 C2.34 15 1.68 15 1 15 C0.67 10.05 0.34 5.1 0 0 Z " fill="#E7B205" transform="translate(121,76)"/>
<path d="M0 0 C1.65 0.33 3.3 0.66 5 1 C5.12375 1.928125 5.12375 1.928125 5.25 2.875 C5.80115872 5.18581338 5.80115872 5.18581338 8.046875 6.1328125 C8.69140625 6.41898437 9.3359375 6.70515625 10 7 C8.41705218 7.05437607 6.83355744 7.09296271 5.25 7.125 C4.36828125 7.14820312 3.4865625 7.17140625 2.578125 7.1953125 C-0.1135858 6.99139502 -1.69904974 6.36551721 -4 5 C-2.68 4.34 -1.36 3.68 0 3 C0 2.01 0 1.02 0 0 Z " fill="#E63926" transform="translate(73,64)"/>
<path d="M0 0 C0.33 0 0.66 0 1 0 C1.48828125 2.01822917 1.9765625 4.03645833 2.46484375 6.0546875 C2.94846992 8.0585657 2.94846992 8.0585657 4 10 C4.66 8.68 5.32 7.36 6 6 C6 9.3 6 12.6 6 16 C5.34 15.34 4.68 14.68 4 14 C3.01 14.495 3.01 14.495 2 15 C2 14.01 2 13.02 2 12 C1.34 12 0.68 12 0 12 C0 8.04 0 4.08 0 0 Z " fill="#1C6488" transform="translate(20,63)"/>
<path d="M0 0 C0.66 0.33 1.32 0.66 2 1 C2 2.32 2 3.64 2 5 C3.65 5.33 5.3 5.66 7 6 C7 4.35 7 2.7 7 1 C7.66 1.99 8.32 2.98 9 4 C8.67 4.99 8.34 5.98 8 7 C4.37 7 0.74 7 -3 7 C-3.33 5.02 -3.66 3.04 -4 1 C-3.01 1.33 -2.02 1.66 -1 2 C-0.67 1.34 -0.34 0.68 0 0 Z " fill="#3D1B52" transform="translate(236,167)"/>
<path d="M0 0 C0.66 0 1.32 0 2 0 C2.33 1.32 2.66 2.64 3 4 C3.99 4 4.98 4 6 4 C6.33 4.99 6.66 5.98 7 7 C3.375 10 3.375 10 0 10 C0 6.7 0 3.4 0 0 Z " fill="#4E2568" transform="translate(77,144)"/>
<path d="M0 0 C0.33 0 0.66 0 1 0 C1.02692484 2.29160319 1.04636124 4.58329546 1.0625 6.875 C1.07410156 8.15117188 1.08570312 9.42734375 1.09765625 10.7421875 C1 14 1 14 0 16 C0.66 16.33 1.32 16.66 2 17 C-0.8125 19.0625 -0.8125 19.0625 -4 21 C-4.99 20.67 -5.98 20.34 -7 20 C-6.195625 19.29875 -5.39125 18.5975 -4.5625 17.875 C-1.6321103 14.5872457 -1.33134293 13.30745803 -1 9 C-0.81614146 7.37458396 -0.62847901 5.7495948 -0.4375 4.125 C-0.29003517 2.75017402 -0.14363527 1.37523135 0 0 Z " fill="#C4A742" transform="translate(120,79)"/>
<path d="M0 0 C1.67598069 0.28280314 3.34162144 0.62761653 5 1 C6.93678017 1.35808216 8.87429326 1.71222167 10.8125 2.0625 C11.78832031 2.23910156 12.76414063 2.41570312 13.76953125 2.59765625 C14.50558594 2.73042969 15.24164063 2.86320313 16 3 C16 3.33 16 3.66 16 4 C14.41705218 4.05437607 12.83355744 4.09296271 11.25 4.125 C10.36828125 4.14820313 9.4865625 4.17140625 8.578125 4.1953125 C5.8864142 3.99139502 4.30095026 3.36551721 2 2 C1.34 2.66 0.68 3.32 0 4 C-2.68839385 4.26991906 -5.29141936 4.08737357 -8 4 C-8 3.67 -8 3.34 -8 3 C-6.865625 2.690625 -5.73125 2.38125 -4.5625 2.0625 C-1.21224901 1.37075469 -1.21224901 1.37075469 0 0 Z " fill="#3F1E4F" transform="translate(141,170)"/>
<path d="M0 0 C1.32 0.33 2.64 0.66 4 1 C4 2.32 4 3.64 4 5 C5.4166747 6.7511573 5.4166747 6.7511573 7 8 C5.35 8 3.7 8 2 8 C0.875 4.25 0.875 4.25 2 2 C1.34 2 0.68 2 0 2 C0 1.34 0 0.68 0 0 Z M0 2 C-0.66 3.32 -1.32 4.64 -2 6 C-2.33 5.34 -2.66 4.68 -3 4 C-3.99 3.34 -4.98 2.68 -6 2 C-3 1 -3 1 0 2 Z " fill="#4B1E65" transform="translate(236,165)"/>
<path d="M0 0 C0.33 0.66 0.66 1.32 1 2 C-0.2065625 3.0828125 -0.2065625 3.0828125 -1.4375 4.1875 C-4.17432961 7.19133738 -4.44906892 8.14348245 -5 12 C-5.90956171 14.38076535 -6.95150024 16.67506576 -8 19 C-10 16 -10 16 -9.71484375 13.94921875 C-7.79603343 8.36634851 -5.59173941 2.7958697 0 0 Z " fill="#350E61" transform="translate(12,96)"/>
<path d="M0 0 C0 0.99 0 1.98 0 3 C-3.63 3 -7.26 3 -11 3 C-10.67 2.01 -10.34 1.02 -10 0 C-6.30581799 -1.231394 -3.7943739 -0.64432764 0 0 Z " fill="#EB8C07" transform="translate(109,67)"/>
<path d="M0 0 C0.66 0.33 1.32 0.66 2 1 C2 2.32 2 3.64 2 5 C1.01 5.495 1.01 5.495 0 6 C-0.99 7.485 -0.99 7.485 -2 9 C-3.32 8.34 -4.64 7.68 -6 7 C-5.8125 5.1875 -5.8125 5.1875 -5 3 C-2.5625 1.1875 -2.5625 1.1875 0 0 Z " fill="#2CBEE7" transform="translate(27,28)"/>
<path d="M0 0 C0.99 0.33 1.98 0.66 3 1 C3.125 4.375 3.125 4.375 3 8 C2.34 8.66 1.68 9.32 1 10 C1 8.68 1 7.36 1 6 C-0.65 6.33 -2.3 6.66 -4 7 C-3.39816251 4.97954558 -2.72693904 2.97888961 -2 1 C-1.34 0.67 -0.68 0.34 0 0 Z " fill="#123F5D" transform="translate(130,26)"/>
<path d="M0 0 C-1.36125 0.86625 -1.36125 0.86625 -2.75 1.75 C-5.52022946 3.66785116 -7.71945499 5.54402845 -10 8 C-10 7.34 -10 6.68 -10 6 C-10.99 5.67 -11.98 5.34 -13 5 C-4.9 -1.75 -4.9 -1.75 0 0 Z " fill="#5FA6C5" transform="translate(45,5)"/>
<path d="M0 0 C1.65 0.33 3.3 0.66 5 1 C4.34 4.3 3.68 7.6 3 11 C2.01 11 1.02 11 0 11 C0.020625 10.21625 0.04125 9.4325 0.0625 8.625 C0.18684063 6.01885039 0.18684063 6.01885039 -1 4 C-0.5625 1.875 -0.5625 1.875 0 0 Z " fill="#45165F" transform="translate(181,143)"/>
<path d="M0 0 C0.99 0.99 1.98 1.98 3 3 C3.66 2.34 4.32 1.68 5 1 C5.33 2.98 5.66 4.96 6 7 C4.68 7.33 3.36 7.66 2 8 C1.67 7.34 1.34 6.68 1 6 C0.01 6 -0.98 6 -2 6 C-1.125 1.125 -1.125 1.125 0 0 Z " fill="#AC0AFB" transform="translate(37,105)"/>
<path d="M0 0 C0.99 0.99 1.98 1.98 3 3 C2.26394531 3.06058594 1.52789062 3.12117188 0.76953125 3.18359375 C-0.20628906 3.26738281 -1.18210937 3.35117187 -2.1875 3.4375 C-3.15042969 3.51871094 -4.11335938 3.59992187 -5.10546875 3.68359375 C-7.78649602 3.97666151 -10.3662986 4.42703754 -13 5 C-12.34 3.68 -11.68 2.36 -11 1 C-10.06027344 1.01740234 -10.06027344 1.01740234 -9.1015625 1.03515625 C-7.87566406 1.04869141 -7.87566406 1.04869141 -6.625 1.0625 C-5.40683594 1.07990234 -5.40683594 1.07990234 -4.1640625 1.09765625 C-1.95062858 1.14466334 -1.95062858 1.14466334 0 0 Z " fill="#28A2C9" transform="translate(80,45)"/>
<path d="M0 0 C0.66 0 1.32 0 2 0 C1.34881199 3.45439737 0.54774266 6.81317151 -0.4375 10.1875 C-0.68371094 11.04730469 -0.92992187 11.90710938 -1.18359375 12.79296875 C-2 15 -2 15 -4 17 C-3.67 13.37 -3.34 9.74 -3 6 C-2.34 6 -1.68 6 -1 6 C-0.67 4.02 -0.34 2.04 0 0 Z " fill="#45C1ED" transform="translate(33,11)"/>
<path d="M0 0 C1.15518918 0.90484792 2.29885406 1.8244206 3.4375 2.75 C4.07558594 3.26046875 4.71367187 3.7709375 5.37109375 4.296875 C7.18810554 6.19667629 7.60423197 7.43586908 8 10 C7.12988281 9.38511719 7.12988281 9.38511719 6.2421875 8.7578125 C1.93915465 5.78971393 -1.8686189 3.31573874 -7 2 C-3.98968256 1.06576355 -3.13349732 0.95550089 0 2 C0 1.34 0 0.68 0 0 Z " fill="#BDA242" transform="translate(124,7)"/>
<path d="M0 0 C3.13759973 0.82175231 4.70255875 1.70255875 7 4 C6 5 6 5 2.625 5.1875 C-1 5 -1 5 -4 3 C-2.3125 1.375 -2.3125 1.375 0 0 Z " fill="#50226C" transform="translate(107,167)"/>
<path d="M0 0 C0.66 0.33 1.32 0.66 2 1 C1.67 1.99 1.34 2.98 1 4 C1.165 4.66 1.33 5.32 1.5 6 C2 8 2 8 1 11 C0.01 11.33 -0.98 11.66 -2 12 C-1.95875 11.21625 -1.9175 10.4325 -1.875 9.625 C-1.71271266 6.83883881 -1.71271266 6.83883881 -4 5 C-3.34 5 -2.68 5 -2 5 C-1.34 3.35 -0.68 1.7 0 0 Z " fill="#53266A" transform="translate(160,157)"/>
<path d="M0 0 C1.47884998 2.3004333 2.09453575 3.44854143 1.625 6.1875 C-1.04020366 9.16022716 -4.11398912 8.74928962 -8 9 C-7.01 8.67 -6.02 8.34 -5 8 C-5 7.34 -5 6.68 -5 6 C-4.34 6 -3.68 6 -3 6 C-3 5.34 -3 4.68 -3 4 C-2.34 4 -1.68 4 -1 4 C-0.67 2.68 -0.34 1.36 0 0 Z " fill="#4A1A66" transform="translate(286,163)"/>
<path d="M0 0 C2.64 0 5.28 0 8 0 C7.01 0.495 7.01 0.495 6 1 C6 1.99 6 2.98 6 4 C6.66 4.66 7.32 5.32 8 6 C6.68 6 5.36 6 4 6 C4 5.34 4 4.68 4 4 C2.68 3.67 1.36 3.34 0 3 C0 2.01 0 1.02 0 0 Z " fill="#51256B" transform="translate(274,147)"/>
<path d="M0 0 C1.65 0.33 3.3 0.66 5 1 C4.42655063 3.86724686 4.1385485 4.8614515 2 7 C1.01 6.34 0.02 5.68 -1 5 C-0.67 3.35 -0.34 1.7 0 0 Z " fill="#43175E" transform="translate(80,143)"/>
<path d="M0 0 C2.64 0 5.28 0 8 0 C8 6.27 8 12.54 8 19 C7.67 19 7.34 19 7 19 C7 13.06 7 7.12 7 1 C4.36 1.66 1.72 2.32 -1 3 C-0.67 2.01 -0.34 1.02 0 0 Z " fill="#3E2552" transform="translate(102,141)"/>
<path d="M0 0 C1.98 0 3.96 0 6 0 C6 1.65 6 3.3 6 5 C4.02 5 2.04 5 0 5 C0 3.35 0 1.7 0 0 Z " fill="#1F9CC5" transform="translate(60,199)"/>
<path d="M0 0 C0.99 0.33 1.98 0.66 3 1 C2.67 2.65 2.34 4.3 2 6 C-1.68266103 5.40049704 -5.34543185 4.75241109 -9 4 C-9 3.34 -9 2.68 -9 2 C-5.62294375 2.53725895 -2.303314 3.11064623 1 4 C0.67 2.68 0.34 1.36 0 0 Z " fill="#411F54" transform="translate(153,163)"/>
<path d="M0 0 C0.33 0.99 0.66 1.98 1 3 C-0.8125 6.1875 -0.8125 6.1875 -3 9 C-3.66 9 -4.32 9 -5 9 C-5 8.01 -5 7.02 -5 6 C-5.66 5.67 -6.32 5.34 -7 5 C-6.030625 4.360625 -5.06125 3.72125 -4.0625 3.0625 C-1.23963731 1.3034741 -1.23963731 1.3034741 0 0 Z " fill="#222922" transform="translate(119,89)"/>
<path d="M0 0 C0.66 0 1.32 0 2 0 C2.2475 0.763125 2.495 1.52625 2.75 2.3125 C4.10995558 5.2364045 5.31585826 6.30004356 8 8 C7.67 8.99 7.34 9.98 7 11 C6.566875 10.505 6.13375 10.01 5.6875 9.5 C4.00259517 7.66781808 4.00259517 7.66781808 1 8 C0 1.125 0 1.125 0 0 Z " fill="#411D57" transform="translate(152,149)"/>
<path d="M0 0 C0.33 1.32 0.66 2.64 1 4 C1.66 3.67 2.32 3.34 3 3 C3 4.65 3 6.3 3 8 C1.35 8.66 -0.3 9.32 -2 10 C-2.25 3.375 -2.25 3.375 0 0 Z " fill="#50266A" transform="translate(246,164)"/>
<path d="M0 0 C2 1 2 1 3 2 C3.28743526 6.21571713 2.79760213 9.18009548 1 13 C0.67 13 0.34 13 0 13 C0 8.71 0 4.42 0 0 Z " fill="#177BA3" transform="translate(62,159)"/>
<path d="M0 0 C0.66 0 1.32 0 2 0 C1.67 0.99 1.34 1.98 1 3 C0.67 2.01 0.34 1.02 0 0 Z M0 3 C1.5 4.3125 1.5 4.3125 3 6 C3 6.99 3 7.98 3 9 C1.35 9 -0.3 9 -2 9 C-1.125 4.125 -1.125 4.125 0 3 Z " fill="#3D0470" transform="translate(6,106)"/>
<path d="M0 0 C0.66 0.33 1.32 0.66 2 1 C1.401875 1.53625 0.80375 2.0725 0.1875 2.625 C-2.15383264 4.94697914 -2.15383264 4.94697914 -3.5625 8.125 C-5 11 -5 11 -8 13 C-7.38768269 9.59398498 -6.1179601 7.52613637 -4 4.8125 C-3.195625 3.77029297 -3.195625 3.77029297 -2.375 2.70703125 C-1 1 -1 1 0 0 Z " fill="#99556D" transform="translate(41,6)"/>
<path d="M0 0 C0.66 0.66 1.32 1.32 2 2 C1.52269162 3.4589426 1.04308958 4.91713496 0.5625 6.375 C0.29566406 7.18710938 0.02882813 7.99921875 -0.24609375 8.8359375 C-1 11 -1 11 -2 13 C-2.33 12.67 -2.66 12.34 -3 12 C-2.91036938 10.30858344 -2.75422324 8.62040398 -2.5625 6.9375 C-2.46066406 6.01839844 -2.35882812 5.09929687 -2.25390625 4.15234375 C-2.17011719 3.44207031 -2.08632813 2.73179687 -2 2 C-1.34 2 -0.68 2 0 2 C0 1.34 0 0.68 0 0 Z " fill="#6C00B2" transform="translate(22,142)"/>
<path d="M0 0 C2.97 0.495 2.97 0.495 6 1 C6.33 2.65 6.66 4.3 7 6 C4.0625 5.25 4.0625 5.25 1 4 C0.125 1.875 0.125 1.875 0 0 Z " fill="#072036" transform="translate(126,17)"/>
<path d="M0 0 C1.8871875 0.0309375 1.8871875 0.0309375 3.8125 0.0625 C3.4825 0.7225 3.1525 1.3825 2.8125 2.0625 C0.5025 2.0625 -1.8075 2.0625 -4.1875 2.0625 C-4.1875 2.7225 -4.1875 3.3825 -4.1875 4.0625 C-5.8375 4.0625 -7.4875 4.0625 -9.1875 4.0625 C-6.53873473 0.0893521 -4.49238456 -0.07364565 0 0 Z " fill="#F33A1A" transform="translate(53.1875,3.9375)"/>
<path d="M0 0 C0.99 0 1.98 0 3 0 C3.125 6.75 3.125 6.75 2 9 C1.34 9 0.68 9 0 9 C0 6.03 0 3.06 0 0 Z " fill="#573770" transform="translate(178,162)"/>
<path d="M0 0 C3.96 0 7.92 0 12 0 C11.67 0.99 11.34 1.98 11 3 C9.35 3 7.7 3 6 3 C6 2.34 6 1.68 6 1 C4.02463255 1.34786708 4.02463255 1.34786708 2 2 C1.67 2.66 1.34 3.32 1 4 C0.34 3.67 -0.32 3.34 -1 3 C-0.67 2.01 -0.34 1.02 0 0 Z " fill="#432057" transform="translate(110,164)"/>
<path d="M0 0 C4.55737263 0.43820891 7.57653445 0.85041169 11 4 C9.68 4.33 8.36 4.66 7 5 C7 4.34 7 3.68 7 3 C5.02 3.33 3.04 3.66 1 4 C0.67 2.68 0.34 1.36 0 0 Z " fill="#8413C4" transform="translate(25,93)"/>
<path d="M0 0 C0.99 0.33 1.98 0.66 3 1 C3 2.98 3 4.96 3 7 C0.69 7 -1.62 7 -4 7 C-3.01 6.34 -2.02 5.68 -1 5 C-0.27034634 2.43717258 -0.27034634 2.43717258 0 0 Z " fill="#3F1E53" transform="translate(249,167)"/>
<path d="M0 0 C0.33 0 0.66 0 1 0 C1.17835515 4.54805635 0.99785435 7.8794254 -1 12 C-1.33 12 -1.66 12 -2 12 C-2.05422947 10.5629191 -2.09289723 9.12524538 -2.125 7.6875 C-2.14820312 6.88699219 -2.17140625 6.08648437 -2.1953125 5.26171875 C-2 3 -2 3 0 0 Z " fill="#6D00B3" transform="translate(22,130)"/>
<path d="M0 0 C0 0.66 0 1.32 0 2 C-1.65 2 -3.3 2 -5 2 C-5.268125 2.639375 -5.53625 3.27875 -5.8125 3.9375 C-7 6 -7 6 -10 7 C-9.8125 5.1875 -9.8125 5.1875 -9 3 C-5.65188866 0.46629412 -4.29875783 0 0 0 Z " fill="#173E58" transform="translate(72,96)"/>
<path d="M0 0 C0.66 0 1.32 0 2 0 C2.33 2.97 2.66 5.94 3 9 C1.68 8.34 0.36 7.68 -1 7 C-0.67 4.69 -0.34 2.38 0 0 Z " fill="#F81722" transform="translate(66,56)"/>
<path d="M0 0 C0.66 0 1.32 0 2 0 C1.67 1.98 1.34 3.96 1 6 C0.01 6.33 -0.98 6.66 -2 7 C-3.66710346 8.49985609 -3.66710346 8.49985609 -5 10 C-3.66749209 6.4124787 -2.169283 3.1635377 0 0 Z " fill="#3CCDEB" transform="translate(31,11)"/>
<path d="M0 0 C3.63 0 7.26 0 11 0 C10.67 0.66 10.34 1.32 10 2 C8.00390625 2.44921875 8.00390625 2.44921875 5.5625 2.6875 C4.75941406 2.77386719 3.95632812 2.86023438 3.12890625 2.94921875 C1 3 1 3 -1 2 C-0.67 1.34 -0.34 0.68 0 0 Z " fill="#D64A2E" transform="translate(48,2)"/>
<path d="M0 0 C0.350625 0.4125 0.70125 0.825 1.0625 1.25 C3.78344094 3.70762407 6.78439652 5.24051885 10 7 C9.01 7.495 9.01 7.495 8 8 C6.0546875 7.22265625 6.0546875 7.22265625 3.875 6.0625 C3.15054687 5.68222656 2.42609375 5.30195313 1.6796875 4.91015625 C1.12539062 4.60980469 0.57109375 4.30945313 0 4 C0 2.68 0 1.36 0 0 Z " fill="#490F7E" transform="translate(10,149)"/>
<path d="M0 0 C3.03125 3.5625 3.03125 3.5625 2.75 7.5 C1.60869565 12.82608696 1.60869565 12.82608696 1 15 C-0.44207941 12.11584117 -0.09394887 9.58278472 -0.0625 6.375 C-0.05347656 5.18648438 -0.04445313 3.99796875 -0.03515625 2.7734375 C-0.02355469 1.85820313 -0.01195313 0.94296875 0 0 Z " fill="#7D01CC" transform="translate(25,94)"/>
<path d="M0 0 C2.72869407 0.03287583 5.2966618 0.56397771 8 1 C8 1.33 8 1.66 8 2 C6.9275 2.268125 5.855 2.53625 4.75 2.8125 C1.43491072 3.86227827 -0.43877646 4.74612328 -3 7 C-2.25 2.25 -2.25 2.25 0 0 Z " fill="#6B91B2" transform="translate(66,49)"/>
<path d="M0 0 C0.33 0 0.66 0 1 0 C1 2.31 1 4.62 1 7 C2.32 7 3.64 7 5 7 C5 8.32 5 9.64 5 11 C3.68 11 2.36 11 1 11 C-0.20272819 8.59454362 -0.10071472 7.05003047 -0.0625 4.375 C-0.05347656 3.55773438 -0.04445313 2.74046875 -0.03515625 1.8984375 C-0.02355469 1.27195313 -0.01195313 0.64546875 0 0 Z " fill="#29A2CA" transform="translate(21,36)"/>
<path d="M0 0 C4.97093824 0.41153737 9.44508386 0.79600832 14 3 C14 3.33 14 3.66 14 4 C8.57960425 4.40652968 4.92984325 3.03993514 0 1 C0 0.67 0 0.34 0 0 Z " fill="#372F14" transform="translate(111,8)"/>
<path d="M0 0 C2.8125 -0.1875 2.8125 -0.1875 6 0 C6.99 0.99 7.98 1.98 9 3 C6.03 3 3.06 3 0 3 C0 2.01 0 1.02 0 0 Z " fill="#E6B102" transform="translate(100,3)"/>
<path d="M0 0 C1.98 0.495 1.98 0.495 4 1 C4 3.97 4 6.94 4 10 C3.67 10 3.34 10 3 10 C2.67 8.35 2.34 6.7 2 5 C1.01 4.67 0.02 4.34 -1 4 C-0.67 2.68 -0.34 1.36 0 0 Z " fill="#4D2766" transform="translate(195,161)"/>
<path d="M0 0 C2.64 0.33 5.28 0.66 8 1 C8 1.99 8 2.98 8 4 C5.69 3.67 3.38 3.34 1 3 C0.67 2.01 0.34 1.02 0 0 Z " fill="#54396D" transform="translate(181,141)"/>
<path d="M0 0 C5.75 -0.125 5.75 -0.125 8 1 C8 1.66 8 2.32 8 3 C5.69 3 3.38 3 1 3 C0.67 2.01 0.34 1.02 0 0 Z " fill="#401F56" transform="translate(204,171)"/>
<path d="M0 0 C0.66 0.33 1.32 0.66 2 1 C2 2.32 2 3.64 2 5 C-0.64 5 -3.28 5 -6 5 C-5.67 4.01 -5.34 3.02 -5 2 C-4.01 1.67 -3.02 1.34 -2 1 C-1.34 0.67 -0.68 0.34 0 0 Z " fill="#53256E" transform="translate(132,167)"/>
<path d="M0 0 C0.99 0 1.98 0 3 0 C3 2.97 3 5.94 3 9 C2.01 9.33 1.02 9.66 0 10 C0.185625 9.278125 0.37125 8.55625 0.5625 7.8125 C1.01995307 4.87173027 0.73516357 2.85896942 0 0 Z " fill="#3F2251" transform="translate(287,163)"/>
<path d="M0 0 C-1.29299694 2.88437779 -2.65941363 4.87219421 -5 7 C-5 6.34 -5 5.68 -5 5 C-5.66 4.67 -6.32 4.34 -7 4 C-2.25 0 -2.25 0 0 0 Z " fill="#9616E0" transform="translate(43,145)"/>
<path d="M0 0 C0.66 0.33 1.32 0.66 2 1 C2 2.65 2 4.3 2 6 C0.68 6.33 -0.64 6.66 -2 7 C-2.33 6.34 -2.66 5.68 -3 5 C-1.5625 2.375 -1.5625 2.375 0 0 Z " fill="#1689AD" transform="translate(63,176)"/>
<path d="M0 0 C1.98 0 3.96 0 6 0 C5.67 0.66 5.34 1.32 5 2 C4.34 2 3.68 2 3 2 C3 3.32 3 4.64 3 6 C2.01 5.67 1.02 5.34 0 5 C0 3.35 0 1.7 0 0 Z " fill="#53216E" transform="translate(221,165)"/>
<path d="M0 0 C1.32 0 2.64 0 4 0 C4.33 1.65 4.66 3.3 5 5 C3.35 4.67 1.7 4.34 0 4 C0 2.68 0 1.36 0 0 Z " fill="#E8B005" transform="translate(113,68)"/>
<path d="M0 0 C0.33 0.66 0.66 1.32 1 2 C1.66 2.33 2.32 2.66 3 3 C1.625 4.5 1.625 4.5 0 6 C-0.66 6 -1.32 6 -2 6 C-2.33 4.68 -2.66 3.36 -3 2 C-2.01 1.34 -1.02 0.68 0 0 Z " fill="#3E1A51" transform="translate(257,154)"/>
<path d="M0 0 C4.75 0.75 4.75 0.75 7 3 C6.67 3.99 6.34 4.98 6 6 C3.96166576 4.7260411 1.96147874 3.38938077 0 2 C0 1.34 0 0.68 0 0 Z " fill="#9B15E3" transform="translate(33,97)"/>
<path d="M0 0 C1.98 0 3.96 0 6 0 C5.67 1.32 5.34 2.64 5 4 C3.0625 3.6875 3.0625 3.6875 1 3 C0.67 2.01 0.34 1.02 0 0 Z " fill="#F24215" transform="translate(77,66)"/>
<path d="M0 0 C1.32 0 2.64 0 4 0 C4 1.32 4 2.64 4 4 C2.02 4 0.04 4 -2 4 C-1.34 2.68 -0.68 1.36 0 0 Z " fill="#1678A1" transform="translate(116,42)"/>
<path d="M0 0 C-0.33 1.65 -0.66 3.3 -1 5 C-2.65 4.67 -4.3 4.34 -6 4 C-2.25 0 -2.25 0 0 0 Z " fill="#0F608B" transform="translate(127,36)"/>
<path d="M0 0 C2.475 0.99 2.475 0.99 5 2 C5 2.66 5 3.32 5 4 C4.01 3.67 3.02 3.34 2 3 C1.67 3.99 1.34 4.98 1 6 C0.01 6.33 -0.98 6.66 -2 7 C-2 6.34 -2 5.68 -2 5 C-1.34 5 -0.68 5 0 5 C0 3.35 0 1.7 0 0 Z " fill="#52266B" transform="translate(253,159)"/>
<path d="M0 0 C0.66 0 1.32 0 2 0 C3.42944945 2.35438733 4.08661261 3.48032433 3.625 6.25 C3.41875 6.8275 3.2125 7.405 3 8 C0.37613513 4.93882432 0 4.26826873 0 0 Z " fill="#3C1A4C" transform="translate(234,142)"/>
<path d="M0 0 C0.33 0 0.66 0 1 0 C1.33 3.3 1.66 6.6 2 10 C1.01 9.67 0.02 9.34 -1 9 C-0.67 6.03 -0.34 3.06 0 0 Z " fill="#412457" transform="translate(240,161)"/>
<path d="M0 0 C0.33 0.66 0.66 1.32 1 2 C1.99 1.34 2.98 0.68 4 0 C5.32 0.33 6.64 0.66 8 1 C3.545 2.485 3.545 2.485 -1 4 C-0.67 2.68 -0.34 1.36 0 0 Z " fill="#422354" transform="translate(255,161)"/>
<path d="M0 0 C0.99 1.32 1.98 2.64 3 4 C2.01 4.99 1.02 5.98 0 7 C-0.99 6.34 -1.98 5.68 -3 5 C-2.01 3.35 -1.02 1.7 0 0 Z " fill="#582C71" transform="translate(198,154)"/>
<path d="M0 0 C0.66 0.33 1.32 0.66 2 1 C2 1.66 2 2.32 2 3 C2.66 3.33 3.32 3.66 4 4 C2.02 4.33 0.04 4.66 -2 5 C-2.33 4.34 -2.66 3.68 -3 3 C-2.01 2.01 -1.02 1.02 0 0 Z " fill="#4E1D67" transform="translate(198,147)"/>
<path d="M0 0 C1.07349791 4.29399165 0.79682816 5.19495213 -1 9 C-1.66 9 -2.32 9 -3 9 C-2.01 6.03 -1.02 3.06 0 0 Z " fill="#412253" transform="translate(180,143)"/>
<path d="M0 0 C3.375 -0.1875 3.375 -0.1875 7 0 C7.66 0.99 8.32 1.98 9 3 C8.01 3.33 7.02 3.66 6 4 C5.67 3.34 5.34 2.68 5 2 C2.97536745 1.34786708 2.97536745 1.34786708 1 1 C0.67 1.66 0.34 2.32 0 3 C0 2.01 0 1.02 0 0 Z " fill="#3C2251" transform="translate(193,141)"/>
<path d="M0 0 C0.99 0 1.98 0 3 0 C3.33 0.99 3.66 1.98 4 3 C2.35 3.66 0.7 4.32 -1 5 C-1.33 4.01 -1.66 3.02 -2 2 C-1.34 1.34 -0.68 0.68 0 0 Z " fill="#6408AC" transform="translate(21,104)"/>
<path d="M0 0 C-1.75 2.0625 -1.75 2.0625 -4 4 C-6.25 3.75 -6.25 3.75 -8 3 C-5.53387212 -0.1151089 -3.89156016 -0.31553191 0 0 Z " fill="#AD4756" transform="translate(73,51)"/>
<path d="M0 0 C0.94875 0.04125 1.8975 0.0825 2.875 0.125 C1.885 1.61 1.885 1.61 0.875 3.125 C-2.095 2.63 -2.095 2.63 -5.125 2.125 C-3.125 0.125 -3.125 0.125 0 0 Z " fill="#2799B8" transform="translate(76.125,43.875)"/>
</svg>
