<?xml version="1.0" standalone="no"?>
<!DOCTYPE svg PUBLIC "-//W3C//DTD SVG 20010904//EN"
 "http://www.w3.org/TR/2001/REC-SVG-20010904/DTD/svg10.dtd">
<svg version="1.0" xmlns="http://www.w3.org/2000/svg"
 width="500.000000pt" height="500.000000pt" viewBox="0 0 500.000000 500.000000"
 preserveAspectRatio="xMidYMid meet">

<g transform="translate(0.000000,500.000000) scale(0.100000,-0.100000)"
fill="#000000" stroke="none">
<path d="M1093 2123 c15 -4 17 -20 17 -153 0 -133 -2 -149 -17 -153 -10 -3 11
-5 47 -5 36 0 59 2 53 5 -9 3 -13 28 -13 74 l0 69 29 0 c20 0 30 -6 34 -20 10
-37 24 -20 26 30 2 54 -9 64 -27 25 -8 -17 -20 -25 -37 -25 -24 0 -25 2 -25
74 0 69 2 75 23 79 12 2 -12 4 -53 4 -41 1 -67 -1 -57 -4z"/>
<path d="M1261 2123 c8 -2 21 -19 28 -38 17 -47 31 -44 31 5 0 40 0 40 -37 39
-21 -1 -31 -3 -22 -6z"/>
<path d="M1353 2123 c15 -4 17 -18 17 -118 0 -67 5 -125 12 -140 13 -29 55
-55 89 -55 21 0 21 0 -2 19 -23 18 -24 26 -27 151 -3 103 -1 135 10 141 8 5
-13 8 -52 8 -36 -1 -57 -3 -47 -6z"/>
<path d="M1578 2118 c14 -7 23 -21 23 -37 l2 -26 4 25 c2 14 12 31 21 38 13
10 9 12 -29 11 -39 0 -41 -2 -21 -11z"/>
<path d="M1673 2123 c15 -4 17 -20 17 -153 0 -133 -2 -149 -17 -153 -10 -3 37
-5 105 -6 l122 -1 0 40 c0 49 -14 52 -31 5 -12 -33 -15 -35 -61 -35 l-48 0 0
149 c0 110 3 151 13 154 6 3 -17 5 -53 5 -36 0 -57 -2 -47 -5z"/>
<path d="M1938 2123 c9 -3 12 -44 12 -153 0 -109 -3 -150 -12 -153 -7 -3 40
-6 105 -6 l117 -1 0 43 c-1 39 -2 41 -15 23 -8 -11 -15 -28 -15 -38 0 -15 -9
-18 -55 -18 l-55 0 0 145 c0 127 2 145 18 154 13 8 1 10 -48 10 -36 0 -59 -3
-52 -6z"/>
<path d="M2215 2105 c-49 -48 -24 -104 70 -163 56 -36 65 -45 65 -71 0 -20 -8
-35 -22 -45 -22 -16 -22 -16 8 -16 38 0 80 31 86 64 9 44 -16 81 -76 115 -84
48 -103 84 -66 121 l20 20 -30 0 c-19 0 -40 -9 -55 -25z"/>
<path d="M2385 2119 c-4 -6 -13 -8 -21 -5 -9 3 -5 -7 9 -29 12 -19 25 -35 30
-35 4 0 7 18 7 40 0 38 -12 52 -25 29z"/>
<path d="M2463 2123 c14 -4 17 -18 19 -86 1 -68 2 -74 7 -35 l6 48 103 -120
c56 -66 106 -120 111 -120 5 0 9 66 10 148 1 125 4 149 18 160 14 10 10 12
-28 11 -39 0 -41 -2 -21 -11 20 -10 22 -18 22 -100 0 -48 -3 -88 -7 -87 -5 0
-42 41 -83 90 -76 92 -101 110 -148 108 -17 -1 -21 -3 -9 -6z"/>
<path d="M2887 2079 c-13 -30 -41 -98 -63 -151 -24 -60 -47 -101 -59 -107 -16
-8 -11 -10 25 -9 25 0 37 2 28 5 -10 2 -18 9 -18 15 0 17 74 198 81 198 4 0
14 -21 24 -47 55 -148 74 -173 136 -173 28 0 30 2 18 13 -9 6 -42 75 -73 152
-32 77 -62 144 -66 149 -5 5 -19 -14 -33 -45z"/>
<path d="M3088 2123 c9 -3 12 -44 12 -153 0 -109 -3 -150 -12 -153 -7 -3 16
-5 52 -5 36 0 59 2 53 5 -10 3 -13 44 -13 154 l0 149 24 0 c15 0 33 -11 46
-27 29 -36 23 -108 -10 -135 l-22 -18 26 0 c34 0 82 24 90 45 12 31 6 83 -11
104 -10 12 -36 26 -58 31 -41 10 -200 13 -177 3z"/>
<path d="M3380 2089 c0 -34 2 -39 14 -30 8 7 17 23 20 36 4 14 15 25 29 28 12
2 3 5 -20 6 l-43 1 0 -41z"/>
<path d="M3512 2121 l27 -6 -81 -140 c-44 -77 -82 -146 -85 -152 -4 -10 13
-13 68 -12 49 1 63 4 43 8 l-31 6 83 145 c46 80 83 148 84 153 0 4 -30 6 -67
6 -43 -1 -58 -4 -41 -8z"/>
<path d="M1596 1919 c-5 -38 -15 -59 -36 -80 -16 -16 -25 -29 -20 -29 20 0 59
63 66 106 3 24 4 47 2 50 -3 2 -8 -19 -12 -47z"/>
<path d="M2482 1867 c-2 -29 -7 -40 -24 -47 -19 -7 -15 -9 21 -9 38 -1 42 1
28 12 -9 6 -18 28 -20 47 l-4 35 -1 -38z"/>
<path d="M2190 1849 c0 -35 2 -40 14 -30 11 10 20 10 36 1 32 -17 29 -9 -12
33 l-38 38 0 -42z"/>
<path d="M3590 1871 c-5 -11 -10 -26 -10 -35 0 -8 -12 -16 -27 -19 -17 -2 -10
-5 20 -6 l47 -1 0 40 c0 43 -13 52 -30 21z"/>
</g>
</svg>
