<?xml version="1.0" encoding="UTF-8"?>
<svg version="1.1" xmlns="http://www.w3.org/2000/svg" width="123" height="187">
<path d="M0 0 C1.07163895 -0.00960754 2.14327789 -0.01921509 3.24739075 -0.02911377 C4.96317574 -0.03548859 4.96317574 -0.03548859 6.71362305 -0.04199219 C8.50004463 -0.0505423 8.50004463 -0.0505423 10.32255554 -0.05926514 C12.83823768 -0.06869453 15.35393206 -0.07524091 17.86962891 -0.07910156 C21.70131135 -0.08880632 25.53245698 -0.11984998 29.36401367 -0.15136719 C31.81388029 -0.15789805 34.26375073 -0.1631482 36.71362305 -0.16699219 C37.85140701 -0.17933899 38.98919098 -0.19168579 40.16145325 -0.20440674 C49.31856437 -0.17898679 57.14291285 1.05269643 63.97143555 7.50097656 C67.91459575 12.04255675 69.00733522 17.04816609 68.7487793 22.89550781 C68.00408926 27.91783599 66.2418266 31.56871554 62.3894043 34.92285156 C55.77024152 39.58789291 49.46211895 41.38550302 41.3425293 41.46972656 C40.03413086 41.49486328 38.72573242 41.52 37.37768555 41.54589844 C35.32610124 41.57468656 33.27460203 41.59875334 31.22290039 41.61743164 C29.22093739 41.63914542 27.21920022 41.67921891 25.2175293 41.71972656 C24.03143066 41.73318115 22.84533203 41.74663574 21.62329102 41.76049805 C18.10758794 42.19922571 16.17407112 42.95710657 13.4128418 45.16113281 C12.99537572 48.28748491 12.99537572 48.28748491 13.4128418 51.16113281 C18.40762761 53.58227709 22.0233614 54.5288831 27.66674805 54.53222656 C29.0293809 54.54959857 30.39201106 54.56718305 31.75463867 54.58496094 C33.86984085 54.59503684 35.98487242 54.59862515 38.10009766 54.59692383 C40.16448175 54.60051073 42.22759256 54.62789428 44.29174805 54.65722656 C45.51450439 54.65907959 46.73726074 54.66093262 47.99707031 54.6628418 C53.23812969 55.42740489 56.29628274 57.92704123 59.7878418 61.78613281 C61.99192073 66.36383521 62.2100057 70.16665692 61.4128418 75.16113281 C59.04352912 80.08201299 56.14700879 82.53283026 51.4128418 85.16113281 C48.51419255 85.55282754 45.98461822 85.74277059 43.0925293 85.73535156 C41.92090744 85.75659843 41.92090744 85.75659843 40.72561646 85.77827454 C38.24621614 85.81997026 35.76754233 85.83537367 33.2878418 85.84863281 C30.8013384 85.87775836 28.31501492 85.91235771 25.8286438 85.9511261 C24.28614462 85.97348535 22.74353453 85.98938226 21.20089722 85.99797058 C17.80316904 86.03206256 14.66161846 86.09958311 11.4128418 87.16113281 C10.54419481 90.93149114 10.26354251 94.46278329 10.20751953 98.32836914 C10.18757431 99.54925735 10.16762909 100.77014557 10.14707947 102.0280304 C10.12201073 103.99077156 10.12201073 103.99077156 10.09643555 105.99316406 C10.075846 107.35365909 10.05484902 108.71414801 10.03346252 110.07463074 C9.97844833 113.64361604 9.92894862 117.21265709 9.88061523 120.78173828 C9.83024873 124.42843548 9.77464199 128.0750524 9.71948242 131.72167969 C9.61215376 138.86809433 9.51065336 146.01458106 9.4128418 153.16113281 C10.0728418 153.16113281 10.7328418 153.16113281 11.4128418 153.16113281 C11.4670092 155.89056818 11.50659404 158.61891845 11.5378418 161.34863281 C11.55459961 162.11755859 11.57135742 162.88648438 11.58862305 163.67871094 C11.6255103 167.97607621 11.4086922 171.24015112 9.4128418 175.16113281 C7.7628418 175.16113281 6.1128418 175.16113281 4.4128418 175.16113281 C2.08180181 170.55433441 2.14470068 166.44483643 2.2253418 161.41113281 C2.22598633 160.63125 2.22663086 159.85136719 2.22729492 159.04785156 C2.27226473 153.30170988 2.27226473 153.30170988 3.4128418 152.16113281 C3.52076703 150.1936627 3.55912538 148.22234797 3.57055664 146.25195312 C3.58594986 144.35428192 3.58594986 144.35428192 3.60165405 142.41827393 C3.60681093 141.39729488 3.60681093 141.39729488 3.61207199 140.35569 C3.62383809 138.22862855 3.64328659 136.10177226 3.66519165 133.97479248 C3.72687108 127.92564757 3.78078971 121.87652053 3.81420898 115.82714844 C3.83518618 112.12998208 3.87051921 108.43318433 3.91496658 104.73622894 C3.92910943 103.32811584 3.93784516 101.91993745 3.94102097 100.5117569 C3.94594383 98.53705485 3.97073673 96.56243284 3.99633789 94.58789062 C4.00442474 93.46505676 4.0125116 92.3422229 4.02084351 91.18536377 C4.58570647 86.82749765 6.34655921 84.2274154 9.4128418 81.16113281 C13.1531983 79.77645228 17.1268373 79.97315508 21.06518555 79.91503906 C22.57886334 79.88210672 24.09253507 79.84889498 25.60620117 79.81542969 C27.98042745 79.76802867 30.35462809 79.72356198 32.72900391 79.68432617 C35.02881562 79.64448917 37.32814341 79.59298487 39.62768555 79.54003906 C40.3330394 79.53162491 41.03839325 79.52321075 41.76512146 79.51454163 C46.69031494 79.39173228 50.60008944 78.91137646 54.2253418 75.41113281 C55.82395392 72.38218352 55.89655315 70.5471123 55.4128418 67.16113281 C53.26193728 63.82352236 52.20871381 62.42642348 48.4128418 61.16113281 C46.22339779 61.04477075 44.03091833 60.98254625 41.83862305 60.95019531 C39.87699219 60.90765625 39.87699219 60.90765625 37.87573242 60.86425781 C35.80680975 60.82320679 33.73810784 60.7862965 31.66894531 60.75976562 C17.04931623 60.55634989 17.04931623 60.55634989 10.4128418 57.16113281 C7.7182269 54.12969105 6.57810936 52.1527382 5.9128418 48.16113281 C6.72711175 43.27551308 8.93006483 40.23614611 12.9128418 37.34863281 C17.35251636 35.23978739 21.10542125 35.04075104 26.0144043 35.02050781 C27.30991211 35.00117187 28.60541992 34.98183594 29.94018555 34.96191406 C31.9806731 34.93313358 34.02008829 34.9111371 36.06079102 34.91064453 C44.81016498 34.89572477 52.1371457 34.40906634 59.4128418 29.16113281 C62.06248406 25.7544499 62.63454689 23.29855258 62.3503418 19.09863281 C61.64293436 15.19672231 60.37862716 12.89277723 57.4128418 10.16113281 C51.77623527 7.29158767 46.66450969 6.05028626 40.38232422 6 C39.40748581 5.99039246 38.4326474 5.98078491 37.42826843 5.97088623 C36.38548233 5.96663635 35.34269623 5.96238647 34.26831055 5.95800781 C33.18455643 5.95230774 32.10080231 5.94660767 30.98420715 5.94073486 C28.69374564 5.93130134 26.40327066 5.92475744 24.11279297 5.92089844 C20.62337373 5.91119685 17.13454471 5.88015875 13.64526367 5.84863281 C11.41544945 5.84210173 9.18563102 5.83685167 6.95581055 5.83300781 C5.40074043 5.81448761 5.40074043 5.81448761 3.81425476 5.79559326 C-2.99631921 5.81635859 -8.8767206 6.43025073 -14.5402832 10.59863281 C-22.84755027 20.60738831 -23.66578498 32.64642457 -23.90356445 45.12988281 C-23.92434555 46.05079712 -23.94512665 46.97171143 -23.96653748 47.92053223 C-24.03140938 50.83399706 -24.09062503 53.74754442 -24.1496582 56.66113281 C-24.19290287 58.64812018 -24.23651897 60.6350995 -24.28051758 62.62207031 C-24.38702592 67.46834201 -24.48846505 72.31469591 -24.5871582 77.16113281 C-26.2371582 77.16113281 -27.8871582 77.16113281 -29.5871582 77.16113281 C-32.61150838 22.01500305 -32.61150838 22.01500305 -20.0871582 7.59863281 C-14.10421723 1.1956566 -8.65058208 0.06306452 0 0 Z " fill="#58ADCC" transform="translate(50.587158203125,9.8388671875)"/>
<path d="M0 0 C0 4.29 0 8.58 0 13 C1.31262571 11.91447634 1.31262571 11.91447634 1.09765625 9.27734375 C1.08605469 8.17519531 1.07445313 7.07304688 1.0625 5.9375 C1.05347656 4.83277344 1.04445313 3.72804688 1.03515625 2.58984375 C1.02355469 1.73519531 1.01195313 0.88054687 1 0 C6.88141585 0.20636547 10.00001137 1.20666061 14.45703125 5.0390625 C19.97354791 12.04992671 19.48638241 19.41447148 19.4375 28 C19.4674707 29.86785156 19.4674707 29.86785156 19.49804688 31.7734375 C19.49434642 38.71548923 19.28714105 43.42278348 15 49 C9.75770777 53.84912032 5.66109101 55.48543969 -1.40234375 55.30859375 C-6.33613462 54.72247423 -10.16642298 52.96584999 -13.5703125 49.31640625 C-17.02205407 44.73052102 -18.13450288 40.98244927 -18.09765625 35.234375 C-18.09443359 34.34492187 -18.09121094 33.45546875 -18.08789062 32.5390625 C-18.07532227 31.15847656 -18.07532227 31.15847656 -18.0625 29.75 C-18.05798828 28.81414062 -18.05347656 27.87828125 -18.04882812 26.9140625 C-18.03706938 24.60934753 -18.01913468 22.30466554 -18 20 C-12.72 20 -7.44 20 -2 20 C-2 19.67 -2 19.34 -2 19 C-7.28 19 -12.56 19 -18 19 C-17.75505947 12.14166511 -15.97485534 7.83049569 -11 3 C-7.3818786 0.66849505 -4.34416023 0 0 0 Z M3 19 C3 19.33 3 19.66 3 20 C7.29 20 11.58 20 16 20 C16 19.67 16 19.34 16 19 C11.71 19 7.42 19 3 19 Z " fill="#B74DE8" transform="translate(23,88)"/>
<path d="M0 0 C0.495 0.99 0.495 0.99 1 2 C-1.77120224 6.79631157 -3.86813031 8.93283889 -9 11 C-12.46337891 11.41650391 -12.46337891 11.41650391 -16.2265625 11.4765625 C-17.23171402 11.49993179 -17.23171402 11.49993179 -18.25717163 11.52377319 C-20.37977021 11.5709393 -22.50204685 11.59893373 -24.625 11.625 C-26.75486543 11.66162212 -28.88455371 11.70233081 -31.01425171 11.74765015 C-32.94115972 11.78706015 -34.8682926 11.81498036 -36.79541016 11.84228516 C-39.39561009 11.97025477 -41.53117191 12.23200574 -44 13 C-44.86864698 16.77035832 -45.14929928 20.30165047 -45.20532227 24.16723633 C-45.22526749 25.38812454 -45.24521271 26.60901276 -45.26576233 27.86689758 C-45.29083107 29.82963875 -45.29083107 29.82963875 -45.31640625 31.83203125 C-45.3369958 33.19252628 -45.35799278 34.55301519 -45.37937927 35.91349792 C-45.43439347 39.48248323 -45.48389317 43.05152427 -45.53222656 46.62060547 C-45.58259306 50.26730266 -45.6381998 53.91391959 -45.69335938 57.56054688 C-45.80068804 64.70696151 -45.90218843 71.85344825 -46 79 C-45.34 79 -44.68 79 -44 79 C-43.94583259 81.72943537 -43.90624775 84.45778564 -43.875 87.1875 C-43.84986328 88.34088867 -43.84986328 88.34088867 -43.82421875 89.51757812 C-43.78733149 93.8149434 -44.0041496 97.07901831 -46 101 C-47.65 101 -49.3 101 -51 101 C-53.33103999 96.3932016 -53.26814112 92.28370362 -53.1875 87.25 C-53.18685547 86.47011719 -53.18621094 85.69023437 -53.18554688 84.88671875 C-53.14057707 79.14057707 -53.14057707 79.14057707 -52 78 C-51.89207477 76.03252989 -51.85371642 74.06121515 -51.84228516 72.09082031 C-51.83202301 70.82570618 -51.82176086 69.56059204 -51.81118774 68.25714111 C-51.80774982 67.57648842 -51.8043119 66.89583572 -51.80076981 66.19455719 C-51.7890037 64.06749574 -51.76955521 61.94063945 -51.74765015 59.81365967 C-51.68597072 53.76451476 -51.63205208 47.71538772 -51.59863281 41.66601562 C-51.57765562 37.96884927 -51.54232258 34.27205152 -51.49787521 30.57509613 C-51.48373237 29.16698302 -51.47499663 27.75880463 -51.47182083 26.35062408 C-51.46689797 24.37592204 -51.44210507 22.40130003 -51.41650391 20.42675781 C-51.40841705 19.30392395 -51.4003302 18.18109009 -51.39199829 17.02423096 C-50.82713532 12.66636484 -49.06628259 10.06628259 -46 7 C-42.2596435 5.61531947 -38.28600449 5.81202227 -34.34765625 5.75390625 C-32.83397846 5.72097391 -31.32030673 5.68776216 -29.80664062 5.65429688 C-27.43241435 5.60689585 -25.0582137 5.56242917 -22.68383789 5.52319336 C-20.38402618 5.48335636 -18.08469839 5.43185205 -15.78515625 5.37890625 C-15.0798024 5.3704921 -14.37444855 5.36207794 -13.64772034 5.35340881 C-8.75983286 5.23152969 -4.89704066 4.70079507 -1.1875 1.375 C-0.795625 0.92125 -0.40375 0.4675 0 0 Z " fill="#165A7E" transform="translate(106,84)"/>
<path d="M0 0 C4.62 0 9.24 0 14 0 C13.67 0.99 13.34 1.98 13 3 C12.34 3 11.68 3 11 3 C10.74984127 6.41642759 10.74984127 6.41642759 11 10 C11.99 10.66 12.98 11.32 14 12 C14.33 10.35 14.66 8.7 15 7 C15.66 7 16.32 7 17 7 C17.33 6.01 17.66 5.02 18 4 C18.66 4.33 19.32 4.66 20 5 C19.67 5.33 19.34 5.66 19 6 C18.73334157 8.40288874 18.53036433 10.77706815 18.375 13.1875 C18.23191406 15.15783203 18.23191406 15.15783203 18.0859375 17.16796875 C18.00807645 20.63986392 18.41912993 23.59776102 19 27 C18.0625 30.375 18.0625 30.375 17 33 C11.27956317 33.45763495 8.40116157 32.71653644 4 29 C-0.95128531 23.48464421 -0.47932498 18.28699557 -0.25 11.125 C-0.23195313 10.05507812 -0.21390625 8.98515625 -0.1953125 7.8828125 C-0.14838408 5.25482088 -0.07664712 2.62729279 0 0 Z " fill="#45027C" transform="translate(6,109)"/>
<path d="M0 0 C-3.75 3 -3.75 3 -6 3 C-6 3.66 -6 4.32 -6 5 C-6.66 5 -7.32 5 -8 5 C-7.731875 5.53625 -7.46375 6.0725 -7.1875 6.625 C-7 9 -7 9 -9.1875 11.5625 C-9.65027344 12.07167969 -10.11304688 12.58085937 -10.58984375 13.10546875 C-17.09057205 21.8391342 -17.11801749 33.55331015 -17.31640625 43.96875 C-17.33718735 44.88966431 -17.35796844 45.81057861 -17.37937927 46.75939941 C-17.44425118 49.67286425 -17.50346682 52.58641161 -17.5625 55.5 C-17.60574467 57.48698737 -17.64936076 59.47396669 -17.69335938 61.4609375 C-17.79986772 66.3072092 -17.90130684 71.1535631 -18 76 C-19.65 76 -21.3 76 -23 76 C-26.02435017 20.85387023 -26.02435017 20.85387023 -13.5 6.4375 C-9.23387476 1.8718694 -6.35270945 -0.3529283 0 0 Z " fill="#76C8E1" transform="translate(44,11)"/>
<path d="M0 0 C-0.33 2.97 -0.66 5.94 -1 9 C3.99478582 11.42114427 7.6105196 12.36775029 13.25390625 12.37109375 C14.6165391 12.38846576 15.97916926 12.40605024 17.34179688 12.42382812 C19.45699905 12.43390403 21.57203063 12.43749233 23.68725586 12.43579102 C25.75163996 12.43937792 27.81475077 12.46676147 29.87890625 12.49609375 C31.1016626 12.49794678 32.32441895 12.4997998 33.58422852 12.50170898 C38.82528789 13.26627207 41.88344095 15.76590842 45.375 19.625 C47.57907893 24.20270239 47.7971639 28.00552411 47 33 C44.66470799 37.85022186 41.7405686 40.48459625 37 43 C34.125 43.25 34.125 43.25 32 43 C32.99 42.34 33.98 41.68 35 41 C38.60328228 37.8256799 40.64411186 35.86380455 41 31 C41.1546875 29.515 41.1546875 29.515 41.3125 28 C40.91600442 24.19364247 39.67646993 22.67646993 37 20 C33.62729502 18.87576501 30.98022153 18.84151413 27.42578125 18.7890625 C25.46415039 18.74652344 25.46415039 18.74652344 23.46289062 18.703125 C21.39396795 18.66207398 19.32526604 18.62516369 17.25610352 18.59863281 C-0.16428845 18.35624761 -0.16428845 18.35624761 -6 13.25 C-7.47793743 9.92464079 -7.51297745 7.59084215 -7 4 C-3.1025641 0 -3.1025641 0 0 0 Z " fill="#D85D34" transform="translate(65,52)"/>
<path d="M0 0 C1.18953278 -0.00145523 2.37906555 -0.00291046 3.60464478 -0.00440979 C6.11438451 -0.00275392 8.62413472 0.00877213 11.13378906 0.02954102 C14.95682373 0.05844452 18.77846592 0.05015161 22.6015625 0.03710938 C25.04688169 0.04334902 27.49219652 0.05174171 29.9375 0.0625 C31.63947037 0.05809654 31.63947037 0.05809654 33.37582397 0.05360413 C41.33410144 0.14725585 49.43946554 0.84919338 55.6015625 6.43359375 C56.1584375 6.91699219 56.7153125 7.40039062 57.2890625 7.8984375 C58.79820052 9.73545372 59.20046315 11.17473125 59.6015625 13.49609375 C58.91320312 12.93728516 58.91320312 12.93728516 58.2109375 12.3671875 C57.59734375 11.89410156 56.98375 11.42101563 56.3515625 10.93359375 C55.74828125 10.45792969 55.145 9.98226563 54.5234375 9.4921875 C52.66559484 8.25021716 52.66559484 8.25021716 50.76412964 9.02212524 C48.03727661 9.61976794 46.68056686 9.04302319 44.07861328 8.08349609 C38.31040936 6.23140274 32.99067529 6.06169751 26.96875 6.09765625 C25.89207062 6.09478607 24.81539124 6.09191589 23.70608521 6.08895874 C21.44549021 6.08692983 19.18487718 6.09237691 16.92431641 6.10498047 C13.47909124 6.12108193 10.03503345 6.10507472 6.58984375 6.0859375 C4.38280993 6.08791952 2.17577684 6.09176235 -0.03125 6.09765625 C-1.56279221 6.08854721 -1.56279221 6.08854721 -3.12527466 6.07925415 C-9.30248097 6.1395901 -13.69618786 7.17947976 -19.3984375 9.49609375 C-20.3884375 9.16609375 -21.3784375 8.83609375 -22.3984375 8.49609375 C-22.0684375 7.83609375 -21.7384375 7.17609375 -21.3984375 6.49609375 C-20.7384375 6.49609375 -20.0784375 6.49609375 -19.3984375 6.49609375 C-19.3984375 5.83609375 -19.3984375 5.17609375 -19.3984375 4.49609375 C-13.06608698 -0.07928763 -7.65830483 -0.07555421 0 0 Z " fill="#E7B763" transform="translate(57.3984375,9.50390625)"/>
<path d="M0 0 C0.33 0 0.66 0 1 0 C1.33 20.79 1.66 41.58 2 63 C2.33 63 2.66 63 3 63 C3.33 43.86 3.66 24.72 4 5 C4.33 5 4.66 5 5 5 C5 24.8 5 44.6 5 65 C5.66 65 6.32 65 7 65 C7.05416741 67.72943537 7.09375225 70.45778564 7.125 73.1875 C7.15013672 74.34088867 7.15013672 74.34088867 7.17578125 75.51757812 C7.21266851 79.8149434 6.9958504 83.07901831 5 87 C3.35 87 1.7 87 0 87 C-2.33103999 82.3932016 -2.26814112 78.28370362 -2.1875 73.25 C-2.18685547 72.47011719 -2.18621094 71.69023437 -2.18554688 70.88671875 C-2.14057707 65.14057707 -2.14057707 65.14057707 -1 64 C-0.87630675 62.0064857 -0.8220361 60.0086353 -0.79467773 58.01147461 C-0.77473251 56.73022202 -0.75478729 55.44896942 -0.73423767 54.12889099 C-0.71725203 52.72004316 -0.70037327 51.31119405 -0.68359375 49.90234375 C-0.66303085 48.46887095 -0.64203456 47.03540431 -0.62062073 45.60194397 C-0.56533141 41.8224688 -0.51595255 38.0429383 -0.46777344 34.2633667 C-0.41760835 30.40925145 -0.36189629 26.55521691 -0.30664062 22.70117188 C-0.19897521 15.13418286 -0.09754903 7.5671269 0 0 Z " fill="#508FA8" transform="translate(55,98)"/>
<path d="M0 0 C0 4.29 0 8.58 0 13 C0.66 13 1.32 13 2 13 C2 16.3 2 19.6 2 23 C1.01 23 0.02 23 -1 23 C-1.33 21.68 -1.66 20.36 -2 19 C-7.28 19 -12.56 19 -18 19 C-17.75505947 12.14166511 -15.97485534 7.83049569 -11 3 C-7.3818786 0.66849505 -4.34416023 0 0 0 Z " fill="#6F24A0" transform="translate(23,88)"/>
<path d="M0 0 C0.05859857 3.35409194 0.09379582 6.70805017 0.125 10.0625 C0.14175781 11.00544922 0.15851562 11.94839844 0.17578125 12.91992188 C0.21372771 18.36523938 -0.18747357 22.85499388 -2 28 C-1.34 28.33 -0.68 28.66 0 29 C0 29.66 0 30.32 0 31 C-3.21182149 32.90608098 -5.53882603 33.22266247 -9.25 33.125 C-10.58804687 33.09792969 -10.58804687 33.09792969 -11.953125 33.0703125 C-12.62859375 33.04710937 -13.3040625 33.02390625 -14 33 C-12.02 32.505 -12.02 32.505 -10 32 C-9.10100692 26.09641729 -9.10100692 26.09641729 -9.5 20.1875 C-10.51636558 13.70816943 -10.55530707 7.18583697 -6.6875 1.75 C-4 0 -4 0 0 0 Z " fill="#9001DF" transform="translate(33,110)"/>
<path d="M0 0 C5.90853071 0.20731687 9.20666607 1.14410332 13.5234375 5.25390625 C17.15549144 9.54895416 18 13.3259706 18 19 C13.05 19 8.1 19 3 19 C3 17.02 3 15.04 3 13 C2.01 12.67 1.02 12.34 0 12 C0 8.04 0 4.08 0 0 Z " fill="#9938D1" transform="translate(24,88)"/>
<path d="M0 0 C12.61249288 -0.62198595 12.61249288 -0.62198595 17.625 1.625 C21.85959303 5.85959303 24.22603698 8.91802091 24.5 15 C24.28787581 19.70915693 23.22389163 22.43675135 20 26 C16.93739862 28.4761458 15.07049691 29.90691331 11.125 30.25 C10.42375 30.1675 9.7225 30.085 9 30 C9.99 29.34 10.98 28.68 12 28 C15.60328228 24.8256799 17.64411186 22.86380455 18 18 C18.1546875 16.515 18.1546875 16.515 18.3125 15 C17.91600442 11.19364247 16.67646993 9.67646993 14 7 C10.57117059 5.85705686 7.75917162 5.79035528 4.14453125 5.68359375 C3.48289474 5.66281265 2.82125824 5.64203156 2.13957214 5.62062073 C0.03065148 5.55535273 -2.07839135 5.49634656 -4.1875 5.4375 C-5.61915315 5.39429311 -7.05079404 5.35067812 -8.48242188 5.30664062 C-11.98815154 5.19969494 -15.49401786 5.09836359 -19 5 C-19 4.67 -19 4.34 -19 4 C-8.44 4 2.12 4 13 4 C13 3.34 13 2.68 13 2 C8.71 1.67 4.42 1.34 0 1 C0 0.67 0 0.34 0 0 Z " fill="#EAB65D" transform="translate(88,65)"/>
<path d="M0 0 C1.1679007 0.00424484 2.33580139 0.00848969 3.53909302 0.01286316 C7.25807036 0.02961475 10.97649977 0.06726177 14.6953125 0.10546875 C17.22134632 0.12052008 19.74738867 0.1342077 22.2734375 0.14648438 C28.45591515 0.17950683 34.63807467 0.22967184 40.8203125 0.29296875 C40.4903125 1.28296875 40.1603125 2.27296875 39.8203125 3.29296875 C39.22642227 3.29661438 38.63253204 3.30026001 38.02064514 3.30401611 C31.80658657 3.34601678 25.59325455 3.4154843 19.37963867 3.50048828 C17.06460864 3.52861194 14.74948412 3.54986901 12.43432617 3.56396484 C9.09505132 3.58551319 5.7569023 3.63222626 2.41796875 3.68359375 C0.87992332 3.68543671 0.87992332 3.68543671 -0.68919373 3.68731689 C-6.67693097 3.80775502 -11.03465247 4.66779291 -16.32569885 7.53704834 C-18.1796875 8.29296875 -18.1796875 8.29296875 -21.1796875 7.29296875 C-20.8496875 6.63296875 -20.5196875 5.97296875 -20.1796875 5.29296875 C-19.5196875 5.29296875 -18.8596875 5.29296875 -18.1796875 5.29296875 C-18.1796875 4.63296875 -18.1796875 3.97296875 -18.1796875 3.29296875 C-12.39660766 -0.5344589 -6.7615407 -0.09278629 0 0 Z " fill="#E29019" transform="translate(56.1796875,10.70703125)"/>
<path d="M0 0 C2.31 0 4.62 0 7 0 C8.03303647 18.97726254 8.03303647 18.97726254 4.25 24.0625 C2.08924132 26.38149605 -0.12346995 27.69305483 -3 29 C-2.68289062 27.906875 -2.36578125 26.81375 -2.0390625 25.6875 C-0.73873989 20.48620957 -0.55176115 15.33965962 -0.375 10 C-0.33632813 9.03449219 -0.29765625 8.06898437 -0.2578125 7.07421875 C-0.16443059 4.7163256 -0.07865671 2.35842244 0 0 Z " fill="#C44BFE" transform="translate(33,110)"/>
<path d="M0 0 C0.66 0.33 1.32 0.66 2 1 C1.67 1.33 1.34 1.66 1 2 C0.73334157 4.40288874 0.53036433 6.77706815 0.375 9.1875 C0.23191406 11.15783203 0.23191406 11.15783203 0.0859375 13.16796875 C0.00807645 16.63986392 0.41912993 19.59776102 1 23 C0.0625 26.375 0.0625 26.375 -1 29 C-6.71658336 29.45732667 -9.48649253 28.52273754 -14 25 C-13.34 23.68 -12.68 22.36 -12 21 C-11.34 21 -10.68 21 -10 21 C-9.34 21.99 -8.68 22.98 -8 24 C-8.061875 22.8553125 -8.061875 22.8553125 -8.125 21.6875 C-8 19 -8 19 -6 16 C-6 15.01 -6 14.02 -6 13 C-5.34 13 -4.68 13 -4 13 C-3.67 9.7 -3.34 6.4 -3 3 C-2.34 3 -1.68 3 -1 3 C-0.67 2.01 -0.34 1.02 0 0 Z " fill="#7300BB" transform="translate(24,113)"/>
<path d="M0 0 C-0.33 0.99 -0.66 1.98 -1 3 C-1.66 3 -2.32 3 -3 3 C-3.29926981 8.08758683 -2.88021962 10.79967972 0 15 C0 15.66 0 16.32 0 17 C-0.66 17 -1.32 17 -2 17 C-1.690625 17.86625 -1.690625 17.86625 -1.375 18.75 C-0.90413615 21.57518308 -1.61934744 22.54550656 -3 25 C-3.36784131 26.3242287 -3.71202981 27.65613912 -4 29 C-4.66 28.67 -5.32 28.34 -6 28 C-6 27.01 -6 26.02 -6 25 C-6.66 25 -7.32 25 -8 25 C-8.85221193 19.97780452 -9.08475267 15.36629553 -8.8125 10.25 C-8.72935547 8.30867188 -8.72935547 8.30867188 -8.64453125 6.328125 C-8 3 -8 3 -6.19921875 1.046875 C-4 0 -4 0 0 0 Z " fill="#550192" transform="translate(20,109)"/>
<path d="M0 0 C0.495 0.99 0.495 0.99 1 2 C-2.625 7.75 -2.625 7.75 -6 10 C-9.1862793 10.22705078 -9.1862793 10.22705078 -13.07421875 10.1953125 C-13.7580513 10.1924826 -14.44188385 10.18965271 -15.1464386 10.18673706 C-17.32697165 10.17555684 -19.50709145 10.15045691 -21.6875 10.125 C-23.16731177 10.11496738 -24.64712999 10.10584202 -26.12695312 10.09765625 C-29.751436 10.07562481 -33.37567766 10.04111002 -37 10 C-37 9.01 -37 8.02 -37 7 C-33.85506621 5.95168874 -31.49874601 5.82978558 -28.1953125 5.75390625 C-26.48408203 5.70459961 -26.48408203 5.70459961 -24.73828125 5.65429688 C-22.33733086 5.59329976 -19.93628402 5.53598348 -17.53515625 5.48242188 C-16.39175781 5.44826172 -15.24835938 5.41410156 -14.0703125 5.37890625 C-12.50434326 5.34132202 -12.50434326 5.34132202 -10.90673828 5.30297852 C-6.28551495 4.82129381 -3.05242009 3.53438115 0 0 Z " fill="#113451" transform="translate(106,84)"/>
<path d="M0 0 C3.056154 0.60718291 5.15761676 1.56402068 7.6875 3.375 C8.28949219 3.79523437 8.89148438 4.21546875 9.51171875 4.6484375 C11 6 11 6 12 9 C12.06740865 10.56118428 12.08514456 12.1250252 12.0625 13.6875 C12.05347656 14.49574219 12.04445313 15.30398437 12.03515625 16.13671875 C12.02355469 16.75160156 12.01195313 17.36648437 12 18 C11.01 18 10.02 18 9 18 C8.896875 18.556875 8.79375 19.11375 8.6875 19.6875 C7.79888319 22.6764838 7.0223894 24.58618039 5 27 C2.27084716 27.74431441 -0.14498691 27.85958952 -3 28 C-2 25 -2 25 0.375 23.6875 C3.78557415 21.49498804 4.69966951 19.82875089 6 16 C6 9.30712271 4.11634044 6.17181234 0 1 C0 0.67 0 0.34 0 0 Z " fill="#3D7794" transform="translate(107,17)"/>
<path d="M0 0 C0.33 0 0.66 0 1 0 C1.33 10.89 1.66 21.78 2 33 C0.35 33 -1.3 33 -3 33 C-3 22.77 -3 12.54 -3 2 C-2.67 2.66 -2.34 3.32 -2 4 C-1.34 4 -0.68 4 0 4 C0 2.68 0 1.36 0 0 Z " fill="#3F7791" transform="translate(24,54)"/>
<path d="M0 0 C-3.75 3 -3.75 3 -6 3 C-6 3.66 -6 4.32 -6 5 C-6.66 5 -7.32 5 -8 5 C-7.731875 5.53625 -7.46375 6.0725 -7.1875 6.625 C-7 9 -7 9 -9.1875 11.5625 C-9.64898437 12.06136719 -10.11046875 12.56023438 -10.5859375 13.07421875 C-13.38175183 16.88177804 -14.5787234 21.53766788 -16 26 C-16.33 26 -16.66 26 -17 26 C-17.12375 25.195625 -17.2475 24.39125 -17.375 23.5625 C-17.58125 22.716875 -17.7875 21.87125 -18 21 C-18.66 20.67 -19.32 20.34 -20 20 C-20.33 20.99 -20.66 21.98 -21 23 C-20.17616908 14.76169078 -16.59678631 9.12867753 -10.78125 3.4453125 C-7.21429442 0.55107223 -4.58269636 -0.25459424 0 0 Z " fill="#72D9F3" transform="translate(44,11)"/>
<path d="M0 0 C0.99 0.66 1.98 1.32 3 2 C2.01 3.485 2.01 3.485 1 5 C1.25110098 7.34360915 1.58565749 9.67968195 2 12 C2 12.99 2 13.98 2 15 C-1.96 15 -5.92 15 -10 15 C-10.25 8.375 -10.25 8.375 -8 5 C-6.68 5.33 -5.36 5.66 -4 6 C-3.71125 5.38125 -3.4225 4.7625 -3.125 4.125 C-2 2 -2 2 0 0 Z " fill="#560192" transform="translate(16,91)"/>
<path d="M0 0 C0.99 0 1.98 0 3 0 C3.04125 0.7425 3.0825 1.485 3.125 2.25 C4.35094737 6.10297744 6.59490627 7.01369533 10 9 C10.33 9.33 10.66 9.66 11 10 C11.66 9.34 12.32 8.68 13 8 C13.33 10.31 13.66 12.62 14 15 C10.37 15 6.74 15 3 15 C-0.16727335 9.8531808 -0.35050464 5.841744 0 0 Z " fill="#9A0AE7" transform="translate(27,91)"/>
<path d="M0 0 C-0.99 1.485 -0.99 1.485 -2 3 C11.365 3.495 11.365 3.495 25 4 C25 4.33 25 4.66 25 5 C24.08186523 5.02505615 23.16373047 5.0501123 22.21777344 5.07592773 C18.80342975 5.1712027 15.38924797 5.27042778 11.97509766 5.37231445 C10.4989061 5.41556035 9.02266785 5.45724256 7.54638672 5.49731445 C5.42140652 5.55526846 3.29665907 5.61888946 1.171875 5.68359375 C-0.1059082 5.72025146 -1.38369141 5.75690918 -2.70019531 5.79467773 C-5.31909873 5.95763259 -7.51016716 6.22946803 -10 7 C-10.33 8.65 -10.66 10.3 -11 12 C-11.33 12 -11.66 12 -12 12 C-12 10.02 -12 8.04 -12 6 C-12.99 5.67 -13.98 5.34 -15 5 C-12.5879397 1.26130653 -12.5879397 1.26130653 -10.3125 0.25 C-6.86266368 -0.12295528 -3.46947836 -0.05782464 0 0 Z " fill="#4A687E" transform="translate(72,90)"/>
<path d="M0 0 C0.92553743 3.13850064 1.11664647 5.93680778 1.09765625 9.203125 C1.09443359 10.1828125 1.09121094 11.1625 1.08789062 12.171875 C1.07951172 13.18765625 1.07113281 14.2034375 1.0625 15.25 C1.05798828 16.28125 1.05347656 17.3125 1.04882812 18.375 C1.03706088 20.91672573 1.02062011 23.45833319 1 26 C2.98 26.33 4.96 26.66 7 27 C3.85408067 29.80045623 1.932936 30.35261589 -2.25 30.1875 C-3.14203125 30.16042969 -4.0340625 30.13335937 -4.953125 30.10546875 C-5.62859375 30.07066406 -6.3040625 30.03585938 -7 30 C-5.68 29.67 -4.36 29.34 -3 29 C-2.10100692 23.09641729 -2.10100692 23.09641729 -2.5 17.1875 C-3.29154918 12.141374 -2.86546185 7.0272045 -2 2 C-1.34 1.34 -0.68 0.68 0 0 Z " fill="#8001CC" transform="translate(26,113)"/>
<path d="M0 0 C0.66 0 1.32 0 2 0 C1.4881973 4.47827363 0.22995619 6.84882323 -3 10 C-11.35616438 15 -11.35616438 15 -16 15 C-16 14.34 -16 13.68 -16 13 C-21.28 12.67 -26.56 12.34 -32 12 C-32 11.67 -32 11.34 -32 11 C-30.60587891 10.92652344 -30.60587891 10.92652344 -29.18359375 10.8515625 C-21.42327821 10.51464124 -21.42327821 10.51464124 -13.875 8.875 C-10.91508147 7.97415523 -9.83188715 7.98861173 -7 9 C-6.01 9 -5.02 9 -4 9 C-3.896875 8.443125 -3.79375 7.88625 -3.6875 7.3125 C-2.85821592 4.5230899 -1.65700944 2.3860936 0 0 Z " fill="#5A99B2" transform="translate(116,35)"/>
<path d="M0 0 C5.28 0 10.56 0 16 0 C16.33 1.32 16.66 2.64 17 4 C17.66 4.66 18.32 5.32 19 6 C18.67 6.66 18.34 7.32 18 8 C17.34 8 16.68 8 16 8 C15.67 10.64 15.34 13.28 15 16 C12.9375 13.9375 12.9375 13.9375 11 11 C11.08533769 6.05041406 11.44300754 4.55699246 15 1 C10.38 1 5.76 1 1 1 C1 7.27 1 13.54 1 20 C0.67 20 0.34 20 0 20 C0 13.4 0 6.8 0 0 Z " fill="#8E49BF" transform="translate(5,108)"/>
<path d="M0 0 C0.33 0 0.66 0 1 0 C1 10.56 1 21.12 1 32 C-0.485 32.495 -0.485 32.495 -2 33 C-2.05813173 28.43755363 -2.09364122 23.87520276 -2.125 19.3125 C-2.14175781 18.01892578 -2.15851562 16.72535156 -2.17578125 15.39257812 C-2.18222656 14.14541016 -2.18867187 12.89824219 -2.1953125 11.61328125 C-2.20578613 10.46641846 -2.21625977 9.31955566 -2.22705078 8.13793945 C-2.00058489 5.00808345 -1.33456032 2.81920095 0 0 Z " fill="#1F7CA1" transform="translate(58,131)"/>
<path d="M0 0 C0.66 0.33 1.32 0.66 2 1 C2 3.31 2 5.62 2 8 C2.66 8 3.32 8 4 8 C3.979375 8.94875 3.95875 9.8975 3.9375 10.875 C3.77448174 13.90666283 3.77448174 13.90666283 5 16 C-0.71658336 16.45732667 -3.48649253 15.52273754 -8 12 C-7.34 10.68 -6.68 9.36 -6 8 C-5.34 8 -4.68 8 -4 8 C-3.01 9.485 -3.01 9.485 -2 11 C-2.061875 9.8553125 -2.061875 9.8553125 -2.125 8.6875 C-2 6 -2 6 0 3 C0 2.01 0 1.02 0 0 Z " fill="#6102A2" transform="translate(18,126)"/>
<path d="M0 0 C-0.33 2.97 -0.66 5.94 -1 9 C2.465 10.485 2.465 10.485 6 12 C6 12.33 6 12.66 6 13 C3.69 13 1.38 13 -1 13 C-0.67 13.99 -0.34 14.98 0 16 C-3.65316671 14.75023244 -4.78065836 14.32901247 -7 11 C-7.4375 7.5625 -7.4375 7.5625 -7 4 C-3.1025641 0 -3.1025641 0 0 0 Z " fill="#EA4F56" transform="translate(65,52)"/>
<path d="M0 0 C0.33 0 0.66 0 1 0 C1.0270203 2.75006608 1.04684883 5.49986546 1.0625 8.25 C1.07087891 9.02730469 1.07925781 9.80460937 1.08789062 10.60546875 C1.09111328 11.35957031 1.09433594 12.11367188 1.09765625 12.890625 C1.10289307 13.58188477 1.10812988 14.27314453 1.11352539 14.98535156 C0.99437971 17.09973898 0.57618237 18.96641515 0 21 C-0.66 21 -1.32 21 -2 21 C-2.33 23.64 -2.66 26.28 -3 29 C-3.33 29 -3.66 29 -4 29 C-4.3336134 19.26343103 -4.26057274 10.34247008 -1 1 C-0.67 0.67 -0.34 0.34 0 0 Z " fill="#60B1CA" transform="translate(24,37)"/>
<path d="M0 0 C1.32 0 2.64 0 4 0 C4 6.93 4 13.86 4 21 C2.68 20.67 1.36 20.34 0 20 C0 13.4 0 6.8 0 0 Z " fill="#380269" transform="translate(6,109)"/>
<path d="M0 0 C0.05802698 3.43742918 0.09360486 6.87473253 0.125 10.3125 C0.15013672 11.77719727 0.15013672 11.77719727 0.17578125 13.27148438 C0.18222656 14.20927734 0.18867187 15.14707031 0.1953125 16.11328125 C0.20578613 16.97735596 0.21625977 17.84143066 0.22705078 18.73168945 C0 21 0 21 -2 24 C-2.66 23.67 -3.32 23.34 -4 23 C-4.08733513 19.91684615 -4.14050127 16.83401173 -4.1875 13.75 C-4.21263672 12.87730469 -4.23777344 12.00460938 -4.26367188 11.10546875 C-4.33806242 4.6086946 -4.33806242 4.6086946 -2.55078125 1.390625 C-1 0 -1 0 0 0 Z " fill="#9D04ED" transform="translate(33,110)"/>
<path d="M0 0 C4.875 0.875 4.875 0.875 6 2 C6.07205511 3.68608966 6.08386068 5.37500659 6.0625 7.0625 C6.05347656 7.98160156 6.04445313 8.90070313 6.03515625 9.84765625 C6.02355469 10.55792969 6.01195312 11.26820313 6 12 C4.0085944 12.38133299 2.00720923 12.71325582 0 13 C-0.33 12.67 -0.66 12.34 -1 12 C-0.90997602 9.97591245 -0.75358962 7.95455713 -0.5625 5.9375 C-0.46066406 4.83277344 -0.35882813 3.72804687 -0.25390625 2.58984375 C-0.17011719 1.73519531 -0.08632813 0.88054687 0 0 Z " fill="#1E91BB" transform="translate(55,166)"/>
<path d="M0 0 C0.66 0.33 1.32 0.66 2 1 C2.40729228 3.32156597 2.74438677 5.6568787 3 8 C4.96822886 6.03177114 4.66248381 2.65191291 5 0 C5.33 0 5.66 0 6 0 C6.35261421 4.95618861 6.5637327 8.82917054 4.375 13.375 C1.06792493 17.03018824 -1.82577581 19.81093703 -6.875 20.25 C-7.57625 20.1675 -8.2775 20.085 -9 20 C-8.01 19.34 -7.02 18.68 -6 18 C-2.38288096 14.81349037 -0.3401873 12.876018 0 8 C0.05983837 5.3272194 0.0453326 2.67462338 0 0 Z " fill="#DDC463" transform="translate(106,75)"/>
<path d="M0 0 C-2.24211393 2.24211393 -3.92385511 2.58138717 -6.92578125 3.35546875 C-10.09614342 4.34060954 -13.01345717 5.82309157 -15.984375 7.29296875 C-18 8 -18 8 -21 7 C-20.67 6.34 -20.34 5.68 -20 5 C-19.34 5 -18.68 5 -18 5 C-18 4.34 -18 3.68 -18 3 C-12.27544841 -0.81636773 -6.70250505 -0.29282789 0 0 Z " fill="#DC4B2A" transform="translate(56,11)"/>
<path d="M0 0 C3.12498063 -0.02895976 6.2499269 -0.04678483 9.375 -0.0625 C10.70917969 -0.07506836 10.70917969 -0.07506836 12.0703125 -0.08789062 C13.34648438 -0.09272461 13.34648438 -0.09272461 14.6484375 -0.09765625 C15.43395996 -0.10289307 16.21948242 -0.10812988 17.02880859 -0.11352539 C19 0 19 0 21 1 C21 1.66 21 2.32 21 3 C14.07 3 7.14 3 0 3 C0 2.01 0 1.02 0 0 Z " fill="#E3771B" transform="translate(80,66)"/>
<path d="M0 0 C1.32 0.33 2.64 0.66 4 1 C3.67 7.27 3.34 13.54 3 20 C2.67 19.01 2.34 18.02 2 17 C1.34 17 0.68 17 0 17 C0 11.39 0 5.78 0 0 Z " fill="#185070" transform="translate(56,95)"/>
<path d="M0 0 C4.39230667 0.91344431 7.93701112 2.66699557 11 6 C11.4375 9.8125 11.4375 9.8125 11 13 C8.40923555 12.63067826 7.28447602 12.34341442 5.5859375 10.29296875 C5.18632813 9.59816406 4.78671875 8.90335938 4.375 8.1875 C3.76785156 7.15689453 3.76785156 7.15689453 3.1484375 6.10546875 C2.05008036 4.09181399 1.0090185 2.05969373 0 0 Z " fill="#2B3E55" transform="translate(107,17)"/>
<path d="M0 0 C0.33 0.66 0.66 1.32 1 2 C-2.625 7.75 -2.625 7.75 -6 10 C-8.69921875 10.1953125 -8.69921875 10.1953125 -11.6875 10.125 C-13.17830078 10.09792969 -13.17830078 10.09792969 -14.69921875 10.0703125 C-15.45847656 10.04710938 -16.21773438 10.02390625 -17 10 C-16.67 9.01 -16.34 8.02 -16 7 C-14.96875 6.896875 -13.9375 6.79375 -12.875 6.6875 C-7.65123844 5.76070359 -3.50165151 4.0852601 0 0 Z " fill="#092643" transform="translate(106,84)"/>
<path d="M0 0 C1.32 0.33 2.64 0.66 4 1 C4.625 3.375 4.625 3.375 5 6 C4.34 6.66 3.68 7.32 3 8 C4.65 8.33 6.3 8.66 8 9 C8 9.33 8 9.66 8 10 C4.7 10 1.4 10 -2 10 C-2.25 3.375 -2.25 3.375 0 0 Z " fill="#4A157B" transform="translate(8,96)"/>
<path d="M0 0 C-0.33 0.99 -0.66 1.98 -1 3 C-1.66 3 -2.32 3 -3 3 C-2.938125 3.78375 -2.87625 4.5675 -2.8125 5.375 C-2.874375 6.24125 -2.93625 7.1075 -3 8 C-3.99 8.66 -4.98 9.32 -6 10 C-6.33 9.01 -6.66 8.02 -7 7 C-6.34 6.34 -5.68 5.68 -5 5 C-5.99 5 -6.98 5 -8 5 C-9.70532323 6.94009522 -9.70532323 6.94009522 -11 9 C-11.99 8.67 -12.98 8.34 -14 8 C-12.627162 4.63159336 -11.40170355 3.3079798 -8.125 1.75 C-7.44695313 1.41484375 -6.76890625 1.0796875 -6.0703125 0.734375 C-4 0 -4 0 0 0 Z " fill="#7023A4" transform="translate(23,88)"/>
<path d="M0 0 C5.61 0 11.22 0 17 0 C16.67 0.99 16.34 1.98 16 3 C10.72 3 5.44 3 0 3 C0 2.01 0 1.02 0 0 Z " fill="#DFB017" transform="translate(80,11)"/>
<path d="M0 0 C0.66 0 1.32 0 2 0 C2 7.26 2 14.52 2 22 C1.34 22 0.68 22 0 22 C-0.90249856 16.85910079 -0.97986395 12.30273626 -0.5625 7.0625 C-0.51029297 6.37865234 -0.45808594 5.69480469 -0.40429688 4.99023438 C-0.27630102 3.32628831 -0.13912281 1.6630527 0 0 Z " fill="#490087" transform="translate(12,112)"/>
<path d="M0 0 C-3.75 3 -3.75 3 -6 3 C-6 3.66 -6 4.32 -6 5 C-6.66 5 -7.32 5 -8 5 C-7.731875 5.53625 -7.46375 6.0725 -7.1875 6.625 C-6.95477689 9.57282601 -7.5799856 10.04811495 -9.4375 12.25 C-10.283125 13.1575 -11.12875 14.065 -12 15 C-13 12 -13 12 -12 9 C-11.34 9 -10.68 9 -10 9 C-10.103125 8.071875 -10.20625 7.14375 -10.3125 6.1875 C-10 3 -10 3 -7.8125 1.125 C-4.94481501 -0.022074 -3.05159307 -0.26156512 0 0 Z " fill="#A4BDD0" transform="translate(44,11)"/>
<path d="M0 0 C2.97 0 5.94 0 9 0 C8.34 1.98 7.68 3.96 7 6 C5.35 6 3.7 6 2 6 C1.34 4.02 0.68 2.04 0 0 Z " fill="#78C3DD" transform="translate(53,179)"/>
<path d="M0 0 C5.01113235 1.4317521 6.94469549 3.98445693 10 8 C9.67 8.66 9.34 9.32 9 10 C8.0925 9.154375 7.185 8.30875 6.25 7.4375 C4.65286551 6.03610643 4.65286551 6.03610643 3 5 C0.78141747 5.13641377 0.78141747 5.13641377 -1 6 C-1.66 5.67 -2.32 5.34 -3 5 C-3 4.34 -3 3.68 -3 3 C-1.68 3 -0.36 3 1 3 C0.67 2.01 0.34 1.02 0 0 Z " fill="#BDB176" transform="translate(107,13)"/>
<path d="M0 0 C0.33 0 0.66 0 1 0 C1 5.61 1 11.22 1 17 C0.67 15.68 0.34 14.36 0 13 C-0.66 13 -1.32 13 -2 13 C-2.16682272 8.07872966 -2.24828052 4.49656104 0 0 Z " fill="#1D6D94" transform="translate(58,131)"/>
<path d="M0 0 C4.38249366 1.33909529 6.57949251 3.08994944 9 7 C8.75 9.3125 8.75 9.3125 8 11 C7.236875 10.21625 6.47375 9.4325 5.6875 8.625 C3.09108195 5.92742283 3.09108195 5.92742283 0 4 C0 2.68 0 1.36 0 0 Z " fill="#C643FE" transform="translate(30,92)"/>
<path d="M0 0 C2.1446143 2.1446143 2.44564603 3.01739998 3.125 5.875 C3.29257812 6.55304688 3.46015625 7.23109375 3.6328125 7.9296875 C4 10 4 10 4 14 C2.68 14 1.36 14 0 14 C0 9.38 0 4.76 0 0 Z " fill="#195172" transform="translate(22,72)"/>
<path d="M0 0 C0 1.65 0 3.3 0 5 C-0.66 5 -1.32 5 -2 5 C-2.33 6.98 -2.66 8.96 -3 11 C-3.99 11 -4.98 11 -6 11 C-6.3125 8.3125 -6.3125 8.3125 -6 5 C-1.76086957 0 -1.76086957 0 0 0 Z " fill="#3EC8F1" transform="translate(34,15)"/>
<path d="M0 0 C3.465 1.98 3.465 1.98 7 4 C7 4.66 7 5.32 7 6 C4.36 6 1.72 6 -1 6 C-1.625 4.125 -1.625 4.125 -2 2 C-1.34 1.34 -0.68 0.68 0 0 Z " fill="#A502FA" transform="translate(32,99)"/>
<path d="M0 0 C0.33 0 0.66 0 1 0 C1 2.97 1 5.94 1 9 C0.01 9 -0.98 9 -2 9 C-2.33 10.32 -2.66 11.64 -3 13 C-4.04005702 9.61981469 -4.08004482 6.5219721 -4 3 C-2.68 3.33 -1.36 3.66 0 4 C0 2.68 0 1.36 0 0 Z " fill="#3F637C" transform="translate(118,26)"/>
<path d="M0 0 C0 0.99 0 1.98 0 3 C-5.28 3 -10.56 3 -16 3 C-16 2.67 -16 2.34 -16 2 C-10.42932723 0.40837921 -5.78898419 -0.20674944 0 0 Z " fill="#E66422" transform="translate(64,11)"/>
<path d="M0 0 C0.66 1.32 1.32 2.64 2 4 C0.02 6.31 -1.96 8.62 -4 11 C-4.99 10.67 -5.98 10.34 -7 10 C-6.57847656 9.44570312 -6.15695313 8.89140625 -5.72265625 8.3203125 C-5.17480469 7.59585938 -4.62695312 6.87140625 -4.0625 6.125 C-3.51722656 5.40570313 -2.97195312 4.68640625 -2.41015625 3.9453125 C-0.96035376 2.05642921 -0.96035376 2.05642921 0 0 Z " fill="#AB3FE3" transform="translate(39,129)"/>
<path d="M0 0 C0.33 0 0.66 0 1 0 C1.16682272 4.92127034 1.24828052 8.50343896 -1 13 C-3.67927341 8.98108988 -3.15601248 6.75838077 -3 2 C-2.67 2.66 -2.34 3.32 -2 4 C-1.34 4 -0.68 4 0 4 C0 2.68 0 1.36 0 0 Z " fill="#287A9C" transform="translate(24,54)"/>
<path d="M0 0 C0.99 0.33 1.98 0.66 3 1 C3 4.3 3 7.6 3 11 C2.01 11 1.02 11 0 11 C-0.19406478 9.35492782 -0.38007935 7.70890406 -0.5625 6.0625 C-0.66691406 5.14597656 -0.77132813 4.22945313 -0.87890625 3.28515625 C-0.91886719 2.53105469 -0.95882813 1.77695313 -1 1 C-0.67 0.67 -0.34 0.34 0 0 Z " fill="#771FAB" transform="translate(22,100)"/>
<path d="M0 0 C0.99 0 1.98 0 3 0 C5.44897847 3.67346771 5.31537716 5.66356399 5 10 C4.34 10.66 3.68 11.32 3 12 C1.06828122 10.06828122 1.35254808 6.60004211 1 4 C0.69096017 2.66082739 0.37057089 1.32346746 0 0 Z " fill="#DFB214" transform="translate(106,72)"/>
<path d="M0 0 C0.33 0 0.66 0 1 0 C1 3.63 1 7.26 1 11 C0.01 11.33 -0.98 11.66 -2 12 C-3.6442351 7.06729471 -2.18615592 4.45975807 0 0 Z " fill="#30A9D1" transform="translate(24,37)"/>
<path d="M0 0 C5.01656959 1.4333056 7.01452882 3.90563952 10 8 C10 8.66 10 9.32 10 10 C7 9 7 9 5.5625 7.0625 C3.87375896 4.83336183 2.55074793 4.0554819 0 3 C0 2.01 0 1.02 0 0 Z " fill="#AE49DD" transform="translate(30,89)"/>
<path d="M0 0 C0.33 0.66 0.66 1.32 1 2 C3.31 2 5.62 2 8 2 C5.78493312 3.1485532 3.78511592 4.06139545 1.375 4.75 C-1.32668251 5.85069061 -1.32668251 5.85069061 -2.3125 9.125 C-2.539375 10.07375 -2.76625 11.0225 -3 12 C-3.33 12 -3.66 12 -4 12 C-4.50423019 6.70558305 -3.18923033 4.18586481 0 0 Z " fill="#A3BDD3" transform="translate(61,49)"/>
<path d="M0 0 C0.66 0 1.32 0 2 0 C3.54571278 2.31856917 4.79618552 4.50638429 6 7 C5.01 7.495 5.01 7.495 4 8 C2.02 6.68 0.04 5.36 -2 4 C-1.34 2.68 -0.68 1.36 0 0 Z " fill="#6E349E" transform="translate(12,134)"/>
<path d="M0 0 C0.33 0.66 0.66 1.32 1 2 C-2.625 7.875 -2.625 7.875 -6 9 C-6 8.34 -6 7.68 -6 7 C-6.66 7 -7.32 7 -8 7 C-8 6.34 -8 5.68 -8 5 C-7.236875 4.731875 -6.47375 4.46375 -5.6875 4.1875 C-3.12619116 3.05575888 -1.80307062 2.08776599 0 0 Z " fill="#434A48" transform="translate(106,84)"/>
<path d="M0 0 C-2 1 -4 2 -6 3 C-6.66 2.67 -7.32 2.34 -8 2 C-10.37123246 1.76970044 -12.74741943 1.58880058 -15.125 1.4375 C-16.40632813 1.35371094 -17.68765625 1.26992188 -19.0078125 1.18359375 C-20.48894531 1.09271484 -20.48894531 1.09271484 -22 1 C-22 0.67 -22 0.34 -22 0 C-7.40318907 -1.33257403 -7.40318907 -1.33257403 0 0 Z " fill="#267F9F" transform="translate(106,46)"/>
<path d="M0 0 C0.66 0 1.32 0 2 0 C3.39457694 2.78915389 3.1821922 4.90273264 3 8 C2 10.875 2 10.875 1 13 C0.67 13 0.34 13 0 13 C0 8.71 0 4.42 0 0 Z " fill="#1A6389" transform="translate(56,123)"/>
<path d="M0 0 C0.66 0 1.32 0 2 0 C1.4975516 4.39642348 0.02704059 6.7948982 -3 10 C-3.99 10.33 -4.98 10.66 -6 11 C-6.33 10.34 -6.66 9.68 -7 9 C-6.01 9 -5.02 9 -4 9 C-3.896875 8.443125 -3.79375 7.88625 -3.6875 7.3125 C-2.85821592 4.5230899 -1.65700944 2.3860936 0 0 Z " fill="#628BA1" transform="translate(116,35)"/>
<path d="M0 0 C0.99 0.33 1.98 0.66 3 1 C3 3.97 3 6.94 3 10 C1.35 9.67 -0.3 9.34 -2 9 C-1.67 8.34 -1.34 7.68 -1 7 C-0.34 7 0.32 7 1 7 C0.67 4.69 0.34 2.38 0 0 Z " fill="#490187" transform="translate(12,95)"/>
<path d="M0 0 C1.98 0 3.96 0 6 0 C6.66 1.65 7.32 3.3 8 5 C7.01 5.495 7.01 5.495 6 6 C6 4.68 6 3.36 6 2 C4.68 2.99 3.36 3.98 2 5 C1.34 4.34 0.68 3.68 0 3 C0 2.01 0 1.02 0 0 Z " fill="#E5C042" transform="translate(103,70)"/>
<path d="M0 0 C0.94875 0.350625 1.8975 0.70125 2.875 1.0625 C1.54166667 1.72916667 0.20833333 2.39583333 -1.125 3.0625 C-1.805625 3.454375 -2.48625 3.84625 -3.1875 4.25 C-5.125 5.0625 -5.125 5.0625 -8.125 4.0625 C-7.795 3.4025 -7.465 2.7425 -7.125 2.0625 C-6.465 2.0625 -5.805 2.0625 -5.125 2.0625 C-5.125 1.4025 -5.125 0.7425 -5.125 0.0625 C-3.125 -0.9375 -3.125 -0.9375 0 0 Z " fill="#CD6465" transform="translate(43.125,13.9375)"/>
<path d="M0 0 C2.64 0.66 5.28 1.32 8 2 C7.360625 2.226875 6.72125 2.45375 6.0625 2.6875 C3.72806339 3.85250896 3.72806339 3.85250896 3.25 6.625 C3.1675 7.40875 3.085 8.1925 3 9 C2.67 9 2.34 9 2 9 C2 7.02 2 5.04 2 3 C1.01 2.67 0.02 2.34 -1 2 C-0.67 1.34 -0.34 0.68 0 0 Z " fill="#587B92" transform="translate(58,93)"/>
<path d="M0 0 C6.75 -0.125 6.75 -0.125 9 1 C9 1.66 9 2.32 9 3 C6.03 3 3.06 3 0 3 C0 2.01 0 1.02 0 0 Z " fill="#E49915" transform="translate(92,66)"/>
<path d="M0 0 C-3.14591933 2.80045623 -5.067064 3.35261589 -9.25 3.1875 C-10.14203125 3.16042969 -11.0340625 3.13335937 -11.953125 3.10546875 C-12.62859375 3.07066406 -13.3040625 3.03585938 -14 3 C-9.31017775 0.56089583 -5.28875777 -0.15110736 0 0 Z " fill="#9947C6" transform="translate(33,140)"/>
<path d="M0 0 C0.99 0 1.98 0 3 0 C3 2.64 3 5.28 3 8 C2.01 8.33 1.02 8.66 0 9 C0 6.03 0 3.06 0 0 Z " fill="#9005E2" transform="translate(27,91)"/>
<path d="M0 0 C0 0.66 0 1.32 0 2 C-2.31 2.33 -4.62 2.66 -7 3 C-7.66 2.01 -8.32 1.02 -9 0 C-3.375 -1.125 -3.375 -1.125 0 0 Z " fill="#CAA93D" transform="translate(108,14)"/>
<path d="M0 0 C2.0625 0.4375 2.0625 0.4375 4 1 C2.68 2.65 1.36 4.3 0 6 C-0.99 5.67 -1.98 5.34 -3 5 C-1.125 1.125 -1.125 1.125 0 0 Z " fill="#6E4093" transform="translate(12,91)"/>
<path d="M0 0 C3.79588866 0.54226981 5.47211993 2.20127563 8 5 C5.6875 5.3125 5.6875 5.3125 3 5 C1.1875 2.5 1.1875 2.5 0 0 Z " fill="#2D2F29" transform="translate(107,17)"/>
<path d="M0 0 C1.20628008 2.33214148 2.1654738 4.49642139 3 7 C3.99 7.33 4.98 7.66 6 8 C3.69 8 1.38 8 -1 8 C-0.67 5.36 -0.34 2.72 0 0 Z " fill="#8C05D9" transform="translate(27,132)"/>
<path d="M0 0 C0.66 0.33 1.32 0.66 2 1 C1.67 4.96 1.34 8.92 1 13 C-1.30143236 9.54785147 -1.13833854 8.76520676 -0.625 4.8125 C-0.51414062 3.91144531 -0.40328125 3.01039062 -0.2890625 2.08203125 C-0.19367187 1.39496094 -0.09828125 0.70789063 0 0 Z " fill="#6900AF" transform="translate(20,121)"/>
<path d="M0 0 C2.875 -0.1875 2.875 -0.1875 6 0 C6.66 0.99 7.32 1.98 8 3 C5.69 3 3.38 3 1 3 C0.67 2.01 0.34 1.02 0 0 Z " fill="#E93525" transform="translate(64,65)"/>
<path d="M0 0 C0.33 0 0.66 0 1 0 C1.20625 0.94875 1.4125 1.8975 1.625 2.875 C2.70833333 6.29166667 2.70833333 6.29166667 6.125 7.375 C7.07375 7.58125 8.0225 7.7875 9 8 C9 8.33 9 8.66 9 9 C5.625 9.1875 5.625 9.1875 2 9 C-0.29013653 5.5647952 -0.17842973 4.014669 0 0 Z " fill="#F18886" transform="translate(62,56)"/>
<path d="M0 0 C0.33 2.97 0.66 5.94 1 9 C-3 4.375 -3 4.375 -3 1 C-1 0 -1 0 0 0 Z " fill="#714A91" transform="translate(9,128)"/>
<path d="M0 0 C-1.0975223 2.99324263 -1.67682892 3.84610901 -4.625 5.25 C-5.40875 5.4975 -6.1925 5.745 -7 6 C-5.52522876 2.59668175 -4.14385429 0 0 0 Z " fill="#C4535C" transform="translate(65,52)"/>
<path d="M0 0 C0 1.65 0 3.3 0 5 C-1.98 5.66 -3.96 6.32 -6 7 C-2.86206897 0 -2.86206897 0 0 0 Z " fill="#78D5F0" transform="translate(34,15)"/>
<path d="M0 0 C0.99 0 1.98 0 3 0 C3 1.65 3 3.3 3 5 C1.68 4.67 0.36 4.34 -1 4 C-0.67 2.68 -0.34 1.36 0 0 Z " fill="#E91C28" transform="translate(59,57)"/>
</svg>
